<?xml version="1.0" standalone="no"?>
<!DOCTYPE svg PUBLIC "-//W3C//DTD SVG 20010904//EN"
 "http://www.w3.org/TR/2001/REC-SVG-20010904/DTD/svg10.dtd">
<svg version="1.0" xmlns="http://www.w3.org/2000/svg"
 width="6250.000000pt" height="6250.000000pt" viewBox="0 0 6250.000000 6250.000000"
 preserveAspectRatio="xMidYMid meet">

<g transform="translate(0.000000,6250.000000) scale(0.100000,-0.100000)"
fill="#000000" stroke="none">
<path d="M9035 40166 c-5 -3 -390 -7 -855 -10 -894 -5 -942 -8 -1164 -56 -533
-116 -962 -489 -1126 -979 -66 -197 -74 -292 -92 -1156 -16 -792 -17 -5820 -1
-10198 l12 -3378 87 -157 c190 -344 337 -513 605 -693 178 -119 267 -149 504
-169 368 -30 811 -33 5500 -37 l4770 -4 155 83 c213 114 287 166 414 288 239
231 411 517 435 725 111 958 134 11712 31 14155 -16 361 -26 448 -66 559 -85
234 -234 454 -417 612 -108 93 -202 155 -432 282 l-190 106 -2615 10 c-4468
18 -5545 21 -5555 17z m-540 -156 c165 -11 245 -25 245 -44 0 -7 -30 -26 -67
-41 -389 -163 -806 -381 -1043 -544 -185 -127 -406 -336 -530 -501 -180 -238
-365 -620 -435 -897 -39 -157 -55 -310 -62 -588 -6 -289 3 -427 42 -621 58
-286 204 -586 404 -832 314 -384 888 -778 1776 -1217 460 -228 1031 -484 1515
-680 1807 -733 2824 -1266 3504 -1838 504 -424 873 -921 1037 -1396 97 -281
139 -520 159 -905 25 -460 -24 -895 -140 -1261 -72 -226 -226 -576 -350 -797
-58 -102 -207 -329 -278 -423 -97 -128 -203 -246 -352 -396 -413 -414 -905
-718 -1484 -918 -317 -110 -723 -151 -1471 -152 -712 -1 -1202 40 -1638 137
-1254 278 -2184 899 -2707 1809 -110 190 -185 360 -296 670 -100 280 -146 348
-240 361 -45 5 -48 8 -63 54 -49 157 -54 561 -55 4550 -1 3562 5 4435 34 5095
14 297 24 369 66 476 126 313 343 551 654 717 201 107 312 137 615 162 336 29
884 38 1160 20z m7275 -10 c1212 -17 1395 -33 1599 -133 181 -89 339 -216 499
-402 160 -186 211 -307 246 -590 50 -396 55 -730 62 -4842 l7 -3723 -204 0
c-286 0 -1381 -18 -1514 -25 -188 -9 -254 -17 -272 -31 -16 -11 -16 -14 -3
-28 8 -8 60 -40 115 -71 144 -83 189 -118 234 -186 88 -131 126 -336 151 -804
28 -516 52 -3888 31 -4300 -25 -499 -70 -656 -215 -760 -177 -126 -585 -298
-901 -380 -328 -84 -548 -110 -935 -109 -314 0 -424 10 -705 60 -671 121
-1450 456 -1905 819 -147 118 -244 209 -667 628 l-411 409 -389 24 c-483 30
-831 30 -861 -1 -16 -16 74 -130 287 -365 505 -556 965 -948 1462 -1246 204
-122 412 -221 649 -309 323 -120 308 -114 280 -115 -147 -8 -3332 -28 -3990
-25 -1088 5 -1375 21 -1640 95 -146 41 -221 89 -367 236 -318 319 -400 506
-433 984 -13 188 -25 2020 -13 2036 6 9 74 -18 228 -88 121 -54 301 -134 400
-177 982 -426 2179 -725 3335 -835 374 -36 494 -41 925 -40 457 0 631 10 969
54 1001 130 1875 555 2561 1244 441 444 777 955 1005 1532 191 482 251 790
270 1379 13 424 -7 752 -61 1005 -86 395 -300 878 -576 1300 -401 612 -1006
1158 -1813 1637 -485 288 -1098 588 -1640 803 -336 133 -1740 736 -2150 923
-291 132 -319 146 -579 276 -668 334 -945 535 -1198 867 -223 294 -318 538
-330 850 -18 462 166 979 490 1379 60 74 208 225 302 308 64 56 258 191 358
250 302 178 736 339 1037 386 415 65 1696 82 2260 31 364 -34 779 -177 1119
-387 503 -311 921 -828 1227 -1516 43 -98 164 -410 226 -587 57 -161 111 -246
141 -221 56 46 76 425 77 1442 l0 606 -237 118 c-432 213 -724 338 -1031 441
-176 59 -344 124 -396 152 l-31 17 40 5 c22 4 179 7 350 9 170 1 312 4 315 8
6 6 1239 -3 2210 -17z m2325 -9843 c23 -56 35 -216 45 -615 10 -425 26 -2119
36 -3849 l6 -1111 -116 -229 c-115 -225 -250 -443 -293 -470 -19 -13 -23 -12
-32 6 -17 32 -30 150 -41 381 -17 358 -30 2990 -20 3975 14 1278 26 1422 136
1639 70 139 134 225 203 278 47 36 59 35 76 -5z"/>
<path d="M9502 33967 c-212 -297 -303 -451 -511 -867 -195 -390 -316 -673
-399 -930 -200 -619 -303 -1158 -343 -1777 -15 -242 -7 -852 15 -1078 84 -868
307 -1666 665 -2385 154 -309 277 -501 337 -526 117 -49 1149 -172 1181 -141
15 16 -59 147 -237 422 -190 291 -301 509 -435 850 -220 561 -375 1217 -439
1865 -37 371 -40 836 -6 1146 83 755 297 1569 589 2236 28 65 130 278 227 475
196 398 247 509 242 524 -2 6 -75 41 -163 79 -130 55 -387 164 -582 246 l-32
14 -109 -153z"/>
<path d="M13865 36549 c-372 -18 -652 -74 -1125 -226 -288 -92 -477 -167 -725
-288 -521 -255 -1105 -643 -1105 -734 0 -41 109 -102 425 -236 l247 -105 42
32 c22 18 106 85 186 148 186 148 241 187 430 300 506 305 1184 540 1815 629
558 79 1066 44 1593 -110 486 -142 867 -355 1165 -652 182 -182 304 -353 411
-577 50 -106 71 -161 172 -450 43 -125 94 -240 104 -240 5 0 11 17 14 38 23
132 28 323 33 1104 l5 867 -54 15 c-29 8 -246 64 -483 125 -1079 276 -1247
311 -1640 341 -377 28 -1130 38 -1510 19z"/>
<path d="M22085 39449 c-407 -36 -810 -168 -1135 -374 -423 -269 -748 -690
-922 -1195 -141 -413 -182 -942 -108 -1422 126 -821 608 -1478 1320 -1798 378
-170 774 -241 1255 -226 500 16 912 82 1317 212 182 59 263 91 420 166 l128
61 2 976 3 976 22 65 c13 37 39 85 59 109 61 71 112 96 237 116 l37 6 0 54 0
55 -530 2 c-292 2 -535 2 -540 0 -6 -2 -10 -27 -10 -56 l0 -53 72 -7 c146 -13
233 -97 285 -273 16 -53 18 -150 21 -1035 l3 -977 -38 -16 c-75 -32 -294 -104
-405 -134 -559 -149 -1187 -196 -1606 -121 -389 70 -738 255 -1013 537 -256
263 -429 570 -545 967 -113 389 -146 931 -83 1376 87 619 367 1164 763 1484
404 326 830 460 1411 443 327 -10 581 -45 754 -103 436 -145 773 -472 960
-927 11 -27 14 -28 71 -25 57 3 60 4 60 28 0 14 -7 160 -15 325 -8 165 -15
312 -15 326 0 23 -13 32 -137 91 -402 192 -854 307 -1423 363 -167 16 -508 18
-675 4z"/>
<path d="M27181 39223 c-46 -115 -190 -464 -318 -778 -586 -1426 -859 -2090
-1201 -2922 -131 -320 -259 -616 -283 -658 -55 -96 -131 -181 -200 -222 -57
-34 -152 -63 -206 -63 l-33 0 0 -60 0 -60 495 0 495 0 0 60 0 60 -70 0 c-174
0 -281 94 -296 261 -11 112 9 182 141 509 245 605 240 593 275 608 84 34 185
47 370 47 283 -1 378 -26 1075 -288 716 -268 853 -305 1238 -335 l88 -7 50
-115 c96 -219 110 -255 130 -325 32 -118 21 -206 -37 -273 -46 -55 -94 -74
-194 -81 l-85 -6 -3 -57 -3 -58 591 0 590 0 0 58 0 58 -69 11 c-209 33 -327
165 -494 554 -25 57 -158 367 -297 689 -245 568 -733 1703 -1066 2475 -89 209
-235 547 -323 750 l-159 370 -59 3 -58 2 -84 -207z m121 -475 c53 -123 329
-763 613 -1423 284 -660 578 -1341 652 -1513 74 -173 132 -316 129 -320 -11
-11 -279 18 -403 43 -166 34 -429 121 -849 280 -425 162 -643 235 -789 267
-95 20 -138 23 -310 23 -157 0 -215 -4 -269 -18 -38 -10 -70 -16 -71 -15 -1 2
143 354 319 783 177 429 445 1080 596 1448 151 367 277 667 280 667 4 0 50
-100 102 -222z"/>
<path d="M30307 39424 c-4 -4 -7 -31 -7 -59 l0 -52 72 -7 c121 -11 198 -68
254 -189 13 -30 28 -77 34 -107 15 -78 14 -4081 -1 -4152 -17 -80 -54 -151
-103 -196 -44 -41 -136 -82 -184 -82 -64 0 -72 -8 -72 -66 l0 -54 1819 0 1819
0 16 68 c8 37 18 85 22 107 3 22 31 155 61 295 30 140 57 271 60 291 l5 36
-77 18 c-42 9 -78 15 -80 13 -1 -1 -21 -41 -43 -88 -73 -153 -148 -254 -271
-364 -143 -127 -320 -220 -499 -259 -96 -22 -110 -22 -1087 -22 l-990 0 -3
2155 c-2 1457 1 2185 8 2247 26 229 104 313 323 348 l38 6 -3 57 -3 57 -550 3
c-303 2 -554 0 -558 -4z"/>
<path d="M34326 39423 c-3 -3 -6 -30 -6 -58 l0 -52 60 -6 c33 -4 78 -16 99
-26 79 -41 169 -170 202 -291 10 -34 14 -390 19 -1505 6 -1307 8 -1468 23
-1535 45 -202 84 -316 164 -475 278 -553 831 -915 1537 -1006 139 -18 195 -20
411 -16 288 6 453 28 660 88 235 68 521 210 679 338 307 247 498 561 573 938
16 80 18 218 23 1593 5 1424 6 1508 24 1560 46 139 140 266 231 312 22 12 68
23 102 26 l63 5 0 52 c0 46 -3 53 -22 58 -30 8 -921 9 -942 1 -12 -5 -16 -19
-16 -59 l0 -52 70 -5 c131 -10 227 -81 303 -225 72 -137 67 -34 67 -1610 0
-1291 -4 -1506 -25 -1629 -68 -381 -304 -720 -666 -956 -153 -99 -399 -201
-599 -247 -303 -71 -733 -71 -1027 -1 -494 117 -898 441 -1102 882 -79 171
-121 325 -140 513 -6 61 -11 655 -11 1510 -2 1564 -7 1447 63 1579 63 118 159
186 264 186 l34 0 -3 58 -3 57 -551 2 c-303 2 -554 0 -558 -4z"/>
<path d="M39801 39382 c-12 -52 -87 -605 -97 -719 l-7 -73 59 0 60 0 43 88
c129 261 299 437 539 558 183 91 207 94 861 94 l551 0 0 -2172 c0 -1264 -4
-2203 -10 -2244 -18 -141 -72 -236 -164 -287 -48 -27 -119 -47 -165 -47 -35 0
-45 -22 -39 -81 l4 -34 562 -3 562 -2 0 58 0 59 -69 6 c-141 12 -227 94 -278
264 -17 54 -18 203 -21 2271 l-2 2212 551 0 c517 0 557 -1 652 -21 220 -44
459 -203 611 -406 36 -48 92 -138 123 -200 l58 -113 58 0 c51 0 57 2 57 21 0
55 -84 697 -101 771 l-11 48 -2188 0 -2188 0 -11 -48z"/>
<path d="M44857 39423 c-7 -14 -16 -58 -27 -134 -15 -107 -90 -681 -90 -691 0
-4 27 -8 60 -8 l60 0 45 89 c138 276 313 452 568 571 158 74 144 73 795 77
l582 4 0 -2208 c0 -2414 3 -2275 -57 -2385 -47 -85 -140 -143 -252 -154 l-61
-7 0 -58 0 -59 560 0 560 0 0 60 0 60 -43 0 c-109 0 -202 58 -256 159 -64 121
-61 -21 -61 2394 l0 2197 553 0 c638 0 665 -3 836 -86 250 -119 419 -292 556
-564 l45 -90 60 0 c33 0 60 1 60 3 0 1 -18 146 -40 322 -40 318 -66 490 -76
506 -6 11 -4371 12 -4377 2z"/>
<path d="M49900 39372 l0 -59 68 -7 c149 -15 239 -101 282 -273 20 -74 20
-122 20 -2092 0 -2161 1 -2091 -49 -2190 -47 -92 -146 -156 -259 -167 l-62 -7
0 -58 0 -59 560 0 561 0 -3 58 -3 57 -69 8 c-153 17 -246 116 -281 302 -13 70
-15 334 -13 2105 l3 2025 25 70 c32 92 100 163 183 194 32 11 70 21 85 21 64
0 72 8 72 65 0 46 -3 53 -22 59 -13 3 -265 6 -560 6 l-538 0 0 -58z"/>
<path d="M21648 33321 c-118 -23 -150 -33 -253 -79 -314 -138 -530 -436 -601
-827 -22 -123 -25 -367 -5 -475 35 -197 165 -505 335 -794 42 -71 74 -131 72
-134 -3 -2 -47 -23 -99 -47 -397 -178 -746 -452 -946 -740 -109 -157 -196
-358 -222 -512 -17 -99 -14 -293 5 -397 43 -226 147 -416 323 -589 210 -207
481 -333 858 -399 115 -20 162 -23 405 -22 315 1 461 15 720 70 340 73 639
197 854 355 37 27 40 28 60 11 12 -9 118 -100 235 -202 117 -102 264 -223 326
-270 289 -217 559 -337 870 -390 139 -24 384 -28 550 -9 92 10 104 14 109 33
3 11 2 24 -2 28 -4 4 -54 3 -110 -3 -112 -10 -243 -1 -379 27 -215 44 -490
196 -758 419 -109 90 -495 456 -557 528 l-51 58 149 152 c177 181 260 293 354
482 100 200 123 292 124 500 0 135 -3 173 -22 241 -111 411 -407 720 -845 884
-96 36 -104 35 -113 -21 l-5 -34 92 -35 c339 -129 575 -386 666 -725 24 -91
26 -117 27 -295 1 -258 -24 -379 -116 -565 -72 -144 -259 -400 -362 -494 l-26
-25 -56 55 c-187 182 -808 837 -910 959 -399 481 -827 1047 -802 1061 7 3 42
12 78 18 104 20 265 68 380 116 377 154 692 422 840 714 48 96 96 254 110 364
65 504 -233 888 -772 997 -152 31 -401 36 -530 11z m457 -80 c44 -12 118 -40
165 -63 70 -34 102 -59 181 -137 81 -82 102 -110 142 -191 80 -162 106 -324
86 -537 -18 -199 -74 -367 -181 -541 -73 -119 -251 -299 -378 -382 -166 -108
-380 -198 -549 -231 -64 -12 -64 -12 -85 14 -35 44 -177 284 -244 415 -103
199 -163 360 -193 517 -19 100 -17 339 5 449 76 392 307 645 643 706 84 16
318 4 408 -19z m-780 -2413 c109 -162 248 -347 464 -618 444 -555 697 -837
1079 -1201 105 -101 192 -186 192 -189 0 -3 -37 -26 -83 -52 -300 -172 -585
-258 -991 -299 -155 -15 -527 -7 -656 15 -581 100 -983 463 -1071 966 -16 97
-17 315 0 409 64 361 316 708 686 947 56 36 273 153 286 154 3 0 45 -60 94
-132z"/>
<path d="M48595 33329 c-568 -46 -1089 -271 -1459 -628 -201 -194 -336 -381
-461 -636 -403 -821 -357 -1931 110 -2685 308 -496 787 -842 1365 -986 246
-62 397 -78 720 -78 290 -1 366 5 580 45 472 89 907 319 1224 650 338 351 560
832 641 1384 34 232 36 602 5 830 -88 648 -370 1197 -800 1557 -319 268 -710
446 -1135 517 -229 39 -539 51 -790 30z m603 -104 c541 -76 994 -366 1303
-834 273 -413 419 -953 419 -1557 0 -907 -313 -1647 -875 -2064 -231 -171
-473 -279 -740 -329 -518 -97 -1032 -20 -1429 213 -465 274 -787 718 -945
1303 -79 292 -111 542 -111 870 0 603 139 1131 407 1543 201 308 470 546 786
695 223 105 393 147 712 179 80 8 363 -3 473 -19z"/>
<path d="M28475 33323 c-353 -30 -615 -93 -816 -194 -204 -102 -361 -249 -462
-431 -94 -169 -124 -465 -64 -636 57 -164 207 -322 427 -452 174 -102 386
-198 685 -308 105 -39 331 -123 504 -187 684 -254 950 -381 1232 -591 208
-155 381 -389 437 -594 72 -257 44 -514 -80 -752 -213 -409 -673 -715 -1169
-778 -249 -31 -915 11 -1136 71 -251 69 -465 192 -648 374 -117 116 -198 232
-291 417 l-64 128 -62 0 -61 0 7 -192 c3 -106 9 -271 13 -367 l6 -174 91 -42
c430 -201 1109 -314 1882 -316 379 0 579 41 860 177 364 177 628 424 800 749
155 293 187 639 88 963 -54 180 -204 414 -355 557 -337 319 -709 501 -1704
835 -444 148 -554 190 -730 275 -233 113 -398 243 -455 358 -45 92 -56 165
-42 289 23 213 107 365 267 486 233 175 563 249 1070 239 282 -5 391 -19 578
-73 209 -60 370 -149 497 -274 109 -107 184 -235 285 -480 25 -63 56 -130 67
-147 19 -31 23 -33 79 -33 58 0 59 1 59 28 0 77 -22 680 -25 698 -8 38 -282
155 -535 229 -150 43 -420 99 -585 120 -205 26 -519 39 -650 28z"/>
<path d="M53385 33323 c-351 -30 -583 -84 -791 -183 -129 -61 -208 -114 -305
-207 -160 -153 -241 -312 -270 -530 -58 -434 161 -691 842 -987 59 -25 331
-129 605 -230 859 -317 1096 -425 1385 -632 236 -169 417 -406 477 -624 88
-316 25 -636 -182 -914 -227 -307 -550 -508 -967 -601 -100 -22 -465 -31 -674
-16 -263 19 -488 50 -599 82 -224 66 -443 196 -611 364 -117 116 -199 234
-291 417 l-64 128 -62 0 -61 0 7 -192 c3 -106 9 -271 13 -367 l6 -174 91 -42
c234 -109 496 -182 861 -240 309 -49 663 -75 1022 -75 383 0 580 40 859 176
371 180 638 432 805 762 129 251 168 512 119 795 -44 259 -163 478 -375 692
-319 322 -700 512 -1706 850 -574 193 -773 276 -957 400 -224 150 -303 285
-288 493 9 115 27 187 70 277 156 325 556 485 1213 485 530 0 891 -112 1133
-350 108 -106 191 -247 281 -472 22 -57 52 -122 65 -145 25 -43 25 -43 84 -43
59 0 60 1 60 28 0 77 -22 680 -25 698 -5 23 -152 97 -316 158 -214 79 -545
158 -802 191 -199 25 -522 39 -652 28z"/>
<path d="M32891 32437 c-195 -474 -463 -1127 -597 -1452 -133 -324 -381 -930
-552 -1345 -170 -415 -324 -786 -342 -825 -100 -220 -249 -349 -416 -363 l-64
-5 0 -61 0 -61 487 2 c269 2 492 3 496 3 4 0 7 26 5 57 l-3 57 -80 4 c-126 5
-208 52 -259 147 -18 35 -21 56 -21 160 1 140 -13 98 231 694 168 410 139 370
294 403 71 15 133 21 245 21 286 0 388 -28 1145 -313 618 -233 878 -301 1199
-313 45 -1 66 -7 72 -17 30 -53 163 -376 176 -425 34 -129 13 -238 -59 -299
-48 -42 -121 -61 -245 -66 -9 0 -13 -19 -13 -59 0 -54 1 -58 23 -56 12 1 275
3 585 4 l562 1 0 60 0 60 -47 0 c-54 1 -144 34 -206 77 -61 42 -162 175 -217
288 -27 55 -252 573 -500 1150 -249 578 -514 1194 -590 1370 -357 829 -752
1747 -803 1867 l-42 98 -55 0 -55 0 -354 -863z m402 143 c58 -135 162 -378
232 -540 70 -162 196 -455 280 -650 164 -381 660 -1534 794 -1844 45 -104 79
-191 77 -193 -7 -7 -252 17 -341 33 -204 38 -479 126 -915 294 -365 140 -616
227 -740 255 -218 50 -483 54 -647 11 -29 -8 -53 -13 -53 -12 0 4 320 784 960
2341 122 297 225 546 227 553 3 7 9 10 13 5 4 -4 55 -118 113 -253z"/>
<path d="M36290 33236 l0 -53 63 -5 c140 -12 229 -89 283 -248 18 -53 19 -123
19 -2125 l0 -2070 -23 -67 c-44 -128 -144 -205 -279 -216 l-63 -5 0 -58 0 -59
430 0 431 0 -3 57 -3 57 -50 3 c-119 6 -181 39 -237 124 -47 72 -68 138 -74
234 -5 70 -12 4145 -7 4145 2 0 117 -146 224 -285 47 -60 159 -204 249 -320
90 -115 387 -496 659 -845 272 -349 733 -941 1025 -1315 1095 -1405 1373
-1762 1431 -1842 l60 -82 63 -1 62 0 0 2243 c0 1496 3 2270 10 2326 27 210
105 307 276 340 l84 16 0 53 0 52 -425 0 -425 0 0 -55 0 -55 50 0 c143 0 243
-92 297 -275 17 -56 18 -176 21 -2037 1 -1088 -1 -1978 -5 -1978 -5 1 -182
225 -394 498 -212 273 -909 1170 -1549 1992 -640 822 -1202 1545 -1249 1606
-47 60 -120 154 -161 207 l-75 97 -357 0 -358 0 0 -54z"/>
<path d="M41582 33243 c-12 -49 -102 -717 -102 -759 0 -22 4 -24 58 -24 l57 0
50 93 c64 120 108 190 165 257 150 180 352 310 570 366 56 15 143 18 638 21
l572 4 0 -2183 c0 -1349 -4 -2208 -10 -2250 -15 -100 -45 -171 -96 -223 -55
-57 -118 -86 -201 -93 l-63 -5 0 -62 c0 -58 1 -62 23 -59 12 1 264 3 560 3
l537 1 0 58 0 58 -57 2 c-86 4 -131 21 -182 71 -51 50 -80 103 -108 196 -17
57 -18 183 -21 2273 l-2 2213 572 -4 c534 -3 578 -5 648 -24 215 -57 426 -194
565 -366 58 -72 140 -202 179 -285 l30 -62 58 0 c56 0 58 1 58 26 0 60 -92
740 -106 787 -5 16 -118 17 -2193 17 l-2187 0 -12 -47z"/>
<path d="M23729 25838 c-2 -581 -2 -579 -9 -570 -4 4 -28 39 -54 79 -85 131
-233 237 -386 279 -80 22 -271 25 -350 5 -30 -7 -95 -32 -145 -56 -183 -88
-308 -234 -377 -440 -20 -60 -23 -90 -23 -215 0 -124 3 -156 23 -220 63 -203
198 -360 385 -449 93 -44 144 -58 243 -67 131 -12 305 29 423 99 76 45 190
161 226 230 17 31 33 57 38 57 4 0 7 -81 7 -180 l0 -180 75 0 75 0 0 1045 0
1045 -75 0 -75 0 -1 -462z m-408 -370 c89 -33 148 -69 207 -126 185 -180 233
-457 120 -690 -44 -92 -168 -217 -258 -260 -90 -44 -170 -62 -270 -62 -167 0
-292 52 -411 170 -272 270 -227 702 94 911 146 95 351 117 518 57z"/>
<path d="M32028 25780 l-3 -521 -50 77 c-136 208 -374 328 -617 310 -117 -8
-167 -21 -264 -67 -153 -72 -265 -183 -339 -334 -60 -124 -79 -217 -72 -358 6
-135 23 -205 79 -317 34 -68 60 -103 133 -176 77 -77 104 -97 185 -136 152
-73 271 -91 426 -64 218 38 398 162 492 339 l27 52 3 -187 2 -188 75 0 75 0 0
1045 0 1045 -75 0 -75 0 -2 -520z m-458 -295 c189 -50 354 -204 411 -384 29
-92 35 -227 15 -315 -27 -115 -71 -191 -161 -282 -123 -124 -242 -174 -418
-174 -163 0 -289 52 -408 170 -251 248 -235 645 36 869 57 47 150 95 226 115
71 19 229 20 299 1z"/>
<path d="M47862 25780 c2 -286 1 -520 -2 -520 -3 0 -11 14 -18 30 -25 55 -100
148 -164 201 -132 109 -311 167 -483 155 -114 -7 -179 -25 -280 -75 -248 -124
-395 -366 -395 -651 0 -299 155 -549 415 -670 108 -51 172 -65 290 -64 116 0
181 13 285 54 131 53 236 144 314 275 20 32 37 52 37 44 1 -8 3 -21 4 -29 1
-8 3 -84 4 -167 l1 -153 70 0 c39 0 70 3 70 8 0 4 1 474 3 1045 l2 1037 -78 0
-77 0 2 -520z m-424 -305 c246 -78 412 -303 412 -560 0 -262 -190 -505 -445
-570 -76 -19 -214 -19 -290 0 -110 28 -184 72 -270 159 -113 114 -162 222
-172 377 -18 280 164 531 437 603 91 24 235 20 328 -9z"/>
<path d="M44240 26089 c-58 -24 -84 -82 -60 -139 42 -101 200 -70 200 39 0 73
-75 127 -140 100z"/>
<path d="M21190 25639 c-223 -32 -423 -183 -525 -394 -53 -110 -75 -205 -75
-324 0 -158 38 -290 119 -413 100 -153 258 -266 431 -309 77 -19 259 -16 340
5 178 47 347 180 434 341 l21 40 3 -187 2 -188 75 0 75 0 0 705 0 705 -75 0
-75 0 -2 -187 -3 -188 -22 40 c-138 259 -423 399 -723 354z m290 -154 c141
-37 270 -132 351 -258 105 -163 116 -392 27 -575 -47 -98 -168 -218 -268 -265
-92 -43 -156 -57 -263 -57 -164 0 -290 53 -408 170 -185 183 -229 443 -117
679 22 48 54 88 112 146 86 85 162 131 267 159 71 19 229 20 299 1z"/>
<path d="M26310 25640 c-294 -47 -538 -270 -605 -552 -22 -92 -19 -258 5 -352
66 -259 268 -462 530 -532 99 -27 291 -25 395 5 201 56 369 197 460 386 101
209 101 433 0 640 -92 189 -258 330 -455 385 -85 24 -246 34 -330 20z m297
-165 c158 -50 284 -159 353 -306 109 -233 63 -488 -119 -669 -118 -117 -244
-170 -408 -170 -176 0 -295 50 -418 174 -92 93 -137 172 -161 288 -21 95 -14
232 15 312 65 185 224 331 411 380 91 24 236 20 327 -9z"/>
<path d="M27875 25635 c-333 -73 -515 -397 -396 -705 26 -67 96 -163 153 -208
48 -37 57 -52 34 -52 -9 0 -41 -24 -70 -52 -64 -62 -78 -107 -55 -172 13 -36
68 -91 111 -110 9 -4 8 -9 -7 -18 -52 -33 -148 -142 -172 -194 -72 -158 -18
-352 129 -459 208 -154 602 -167 839 -29 76 45 152 130 180 202 30 78 30 194
-1 275 -31 81 -112 162 -210 210 -113 55 -209 75 -415 87 -99 6 -198 14 -219
19 -120 29 -128 123 -15 181 33 18 40 18 85 4 27 -8 87 -18 134 -21 281 -18
530 158 590 416 8 33 11 88 8 142 -5 74 -11 100 -40 161 -20 40 -54 93 -77
117 -22 24 -41 46 -41 48 0 1 47 3 105 3 l105 0 0 70 c0 83 21 77 -199 55
-124 -12 -149 -12 -180 0 -111 44 -260 56 -376 30z m325 -161 c85 -41 149 -99
187 -171 64 -120 66 -235 6 -354 -104 -208 -375 -285 -599 -171 -57 29 -140
116 -171 181 -25 50 -28 67 -28 161 0 95 3 111 28 162 48 97 137 173 247 210
42 14 80 17 160 15 94 -2 112 -6 170 -33z m-10 -1220 c105 -21 216 -78 256
-131 90 -119 56 -294 -71 -368 -74 -44 -135 -63 -240 -75 -175 -20 -349 15
-444 90 -93 74 -128 205 -81 307 23 53 100 137 160 175 l45 30 150 -7 c83 -4
184 -13 225 -21z"/>
<path d="M29515 25644 c-11 -2 -45 -9 -75 -15 -30 -6 -97 -31 -149 -56 -79
-38 -108 -59 -181 -131 -144 -144 -208 -287 -217 -487 -11 -235 65 -428 233
-584 78 -73 214 -149 304 -169 180 -42 387 -11 536 80 77 46 183 155 229 234
l40 68 3 -187 2 -187 75 0 75 0 0 705 0 705 -75 0 -75 0 -2 -187 -3 -188 -31
55 c-100 175 -263 294 -456 334 -71 15 -184 19 -233 10z m263 -158 c142 -38
261 -122 341 -242 72 -107 96 -190 96 -329 0 -89 -5 -124 -24 -183 -56 -172
-193 -311 -367 -374 -82 -29 -246 -36 -333 -14 -219 56 -390 234 -436 451 -42
203 14 387 164 535 119 118 241 168 411 169 52 0 119 -6 148 -13z"/>
<path d="M33169 25640 c-291 -46 -538 -272 -604 -552 -22 -93 -19 -257 5 -354
79 -310 341 -525 667 -550 371 -28 706 224 779 586 76 377 -159 755 -531 854
-73 20 -240 28 -316 16z m266 -155 c172 -44 317 -165 389 -324 104 -232 57
-482 -123 -661 -118 -117 -245 -170 -411 -170 -170 0 -293 52 -416 174 -129
129 -180 263 -171 446 9 192 103 353 268 460 129 83 315 113 464 75z"/>
<path d="M34628 25634 c-186 -45 -308 -175 -309 -328 -2 -184 96 -281 401
-401 189 -75 316 -136 363 -175 100 -84 114 -233 30 -316 -61 -61 -131 -87
-251 -92 -207 -9 -347 55 -416 192 l-28 56 -75 0 -75 0 7 -32 c25 -114 126
-234 246 -291 97 -46 170 -61 309 -61 222 0 384 77 458 219 24 44 27 62 27
145 0 111 -18 161 -85 233 -65 72 -155 123 -377 216 -249 105 -263 112 -315
159 -48 43 -68 85 -68 142 0 122 122 210 290 210 147 0 255 -65 295 -178 l19
-52 74 0 74 0 -7 38 c-19 106 -102 216 -205 271 -107 57 -260 75 -382 45z"/>
<path d="M37095 25636 c-162 -32 -306 -117 -411 -244 -132 -161 -192 -364
-165 -564 31 -229 140 -409 323 -529 216 -142 467 -155 707 -38 101 50 215
158 274 259 l37 65 0 -135 c0 -74 3 -159 6 -187 l7 -53 68 0 69 0 0 705 0 705
-69 0 -68 0 -7 -61 c-3 -34 -6 -119 -6 -188 l0 -126 -33 58 c-78 139 -225 260
-381 312 -97 32 -246 41 -351 21z m308 -151 c208 -54 379 -227 428 -435 47
-198 -25 -430 -175 -568 -64 -58 -169 -115 -252 -136 -84 -22 -223 -21 -305 2
-206 57 -374 235 -420 443 -19 90 -7 249 25 333 32 83 99 179 163 235 55 47
165 106 238 126 68 18 228 18 298 0z"/>
<path d="M38718 25634 c-127 -30 -244 -118 -287 -214 -28 -62 -29 -181 -1
-244 25 -60 86 -125 159 -170 33 -20 144 -70 247 -112 230 -92 296 -126 355
-184 69 -69 88 -165 48 -246 -22 -47 -66 -84 -137 -117 -41 -19 -64 -22 -187
-22 -136 0 -142 1 -206 31 -85 41 -138 89 -173 158 l-28 56 -75 0 -75 0 6 -27
c16 -66 68 -156 118 -206 101 -102 241 -150 433 -151 189 0 320 47 413 149 64
70 86 134 80 233 -11 180 -115 286 -393 401 -260 107 -335 144 -381 184 -166
147 -41 356 214 358 144 2 259 -68 299 -180 l18 -51 73 0 74 0 -7 38 c-19 106
-102 216 -205 271 -107 57 -260 75 -382 45z"/>
<path d="M39970 25635 c-192 -54 -298 -164 -308 -320 -8 -135 57 -239 201
-319 37 -21 140 -67 229 -103 341 -137 417 -198 418 -341 0 -144 -126 -232
-334 -232 -194 0 -326 68 -387 198 l-24 51 -77 1 -77 0 15 -52 c53 -181 211
-298 443 -328 257 -33 482 53 562 216 29 58 32 75 32 144 -3 199 -116 308
-468 450 -300 121 -364 168 -381 275 -11 78 48 169 136 207 180 78 405 0 451
-158 l13 -44 73 0 c71 0 73 1 73 25 0 38 -37 125 -74 176 -40 54 -118 108
-201 138 -80 30 -237 38 -315 16z"/>
<path d="M41515 25636 c-150 -29 -274 -95 -391 -212 -71 -69 -89 -95 -132
-185 -64 -133 -77 -188 -76 -324 1 -168 41 -293 139 -430 61 -85 118 -137 213
-194 139 -83 285 -119 441 -107 118 9 162 21 278 78 316 154 475 497 388 839
-9 35 -35 102 -58 149 -34 71 -57 101 -137 180 -78 78 -111 102 -181 137 -47
23 -114 49 -149 58 -86 22 -248 28 -335 11z m289 -151 c105 -27 185 -74 267
-156 121 -119 174 -250 172 -424 -2 -263 -183 -493 -439 -559 -80 -21 -221
-20 -304 2 -207 54 -380 240 -421 450 -18 96 -7 242 25 326 31 83 99 179 163
235 55 47 165 106 238 126 69 18 228 18 299 0z"/>
<path d="M43257 25640 c-162 -29 -301 -104 -414 -223 -80 -85 -129 -166 -169
-282 -25 -71 -28 -94 -28 -210 -1 -109 3 -142 23 -205 76 -245 245 -421 479
-501 89 -30 107 -33 222 -33 92 0 141 5 184 18 90 27 178 73 235 123 l51 45 0
74 c0 41 -4 74 -8 74 -5 0 -17 -10 -28 -21 -38 -43 -157 -118 -222 -141 -96
-33 -287 -33 -382 1 -283 99 -452 403 -385 690 26 110 71 188 160 276 124 124
247 175 420 175 147 0 263 -43 383 -140 l62 -51 0 74 c0 70 -2 75 -32 104
-105 98 -243 153 -403 158 -55 2 -122 0 -148 -5z"/>
<path d="M45355 25644 c-11 -2 -45 -9 -75 -15 -76 -15 -224 -88 -288 -143
-124 -106 -218 -260 -248 -406 -22 -104 -14 -289 16 -385 64 -203 196 -355
383 -444 110 -52 172 -66 302 -65 128 1 203 18 315 72 91 45 229 175 281 267
l34 60 3 -187 2 -188 75 0 75 0 0 705 0 705 -75 0 -75 0 0 -164 c0 -90 -3
-172 -6 -180 -5 -12 -15 -1 -40 40 -90 149 -241 265 -404 310 -55 15 -238 27
-275 18z m265 -159 c242 -64 417 -274 437 -523 8 -110 -10 -200 -62 -308 -36
-74 -57 -103 -118 -161 -119 -112 -245 -163 -407 -163 -167 0 -292 52 -411
170 -111 110 -166 228 -176 381 -19 279 164 531 437 603 72 19 230 20 300 1z"/>
<path d="M49007 25640 c-284 -51 -512 -249 -591 -510 -57 -189 -28 -422 75
-596 83 -141 256 -273 420 -321 404 -117 805 98 931 497 33 107 33 301 -1 410
-45 146 -120 259 -235 358 -67 56 -194 123 -282 146 -71 20 -250 29 -317 16z
m330 -175 c126 -48 228 -133 298 -250 81 -135 104 -321 57 -470 -61 -197 -222
-350 -423 -401 -87 -22 -249 -15 -336 16 -165 58 -305 198 -363 363 -28 78
-38 236 -21 315 7 32 30 94 52 139 127 266 454 394 736 288z"/>
<path d="M50500 25643 c-51 -8 -146 -47 -195 -79 -172 -114 -201 -339 -62
-482 63 -65 131 -102 359 -195 212 -87 272 -117 328 -163 104 -88 100 -254 -8
-337 -64 -49 -157 -70 -286 -65 -99 4 -119 8 -178 35 -83 39 -138 89 -174 158
l-29 55 -74 0 -73 0 6 -32 c29 -148 185 -293 358 -333 287 -65 561 18 656 200
23 43 27 62 27 140 0 76 -4 99 -26 145 -35 74 -77 120 -159 175 -64 43 -116
67 -385 179 -220 92 -281 151 -273 266 5 76 41 123 123 165 55 28 68 30 165
30 86 0 113 -4 151 -22 66 -30 123 -90 144 -152 l17 -51 74 0 75 0 -7 38 c-19
109 -106 223 -214 277 -88 44 -234 65 -340 48z"/>
<path d="M24150 25614 c0 -3 119 -285 264 -627 145 -342 279 -657 297 -700
l32 -78 90 3 89 3 297 700 298 700 -80 3 c-44 2 -84 -1 -88 -5 -4 -4 -121
-281 -260 -616 -139 -334 -256 -604 -259 -600 -4 5 -80 184 -170 398 -89 215
-203 488 -253 608 l-91 217 -83 0 c-46 0 -83 -3 -83 -6z"/>
<path d="M44200 24915 l0 -705 75 0 75 0 0 705 0 705 -75 0 -75 0 0 -705z"/>
</g>
</svg>
