<?xml version="1.0" standalone="no"?>
<!DOCTYPE svg PUBLIC "-//W3C//DTD SVG 20010904//EN"
 "http://www.w3.org/TR/2001/REC-SVG-20010904/DTD/svg10.dtd">
<svg version="1.0" xmlns="http://www.w3.org/2000/svg"
 width="6250.000000pt" height="6250.000000pt" viewBox="0 0 6250.000000 6250.000000"
 preserveAspectRatio="xMidYMid meet">

<g transform="translate(0.000000,6250.000000) scale(0.100000,-0.100000)"
fill="#000000" stroke="none">
<path d="M23919 51826 c-3 -3 -288 -6 -635 -7 -1177 -4 -1348 -15 -1724 -109
-573 -144 -1074 -483 -1401 -950 -209 -297 -349 -666 -384 -1008 -68 -680 -90
-4798 -65 -12602 5 -1658 14 -4637 21 -6620 l11 -3605 85 -155 c211 -383 277
-489 403 -646 279 -344 744 -685 1036 -760 163 -41 502 -68 1139 -90 400 -14
2570 -19 8941 -22 l6500 -4 205 107 c335 176 481 273 655 436 266 251 448 495
599 804 112 227 122 265 140 512 92 1298 137 5036 136 11428 -1 6041 -37 9611
-111 11025 -22 424 -32 488 -106 682 -179 472 -473 842 -894 1127 -99 67 -549
325 -707 404 l-51 26 -634 1 c-348 0 -2050 5 -3783 10 -5337 16 -9370 23
-9376 16z m96 -241 c260 -21 355 -39 355 -69 0 -16 -40 -36 -310 -153 -247
-108 -686 -322 -900 -440 -897 -493 -1388 -986 -1780 -1788 -232 -476 -328
-806 -370 -1280 -30 -335 -22 -940 15 -1188 82 -545 306 -1047 670 -1498 82
-103 329 -353 453 -461 678 -586 1655 -1156 3197 -1865 490 -226 991 -442
1825 -788 784 -326 1423 -600 1775 -763 72 -33 213 -98 315 -145 268 -123 796
-385 1081 -535 1401 -740 2295 -1413 2970 -2237 517 -631 832 -1325 949 -2090
96 -632 89 -1468 -16 -2045 -129 -706 -489 -1564 -939 -2240 -458 -686 -1077
-1288 -1780 -1730 -489 -307 -1025 -551 -1535 -699 -431 -124 -1334 -188
-2420 -169 -1048 17 -1755 91 -2435 253 -903 215 -1736 569 -2420 1025 -962
643 -1675 1536 -2059 2580 -32 85 -73 198 -92 250 -110 300 -171 431 -237 506
-44 50 -104 83 -150 84 -77 0 -108 68 -137 300 -40 322 -51 1778 -52 7125 -2
5542 14 7336 73 8210 16 251 40 342 143 560 217 456 572 810 1051 1045 192 95
340 146 495 171 201 33 627 68 1015 83 242 9 1099 3 1250 -9z m11765 -15
c1515 -29 1807 -49 2070 -147 347 -129 700 -401 996 -768 108 -135 139 -181
185 -281 128 -278 177 -671 215 -1739 13 -372 17 -1251 24 -5675 5 -2879 9
-5560 9 -5956 l1 -722 -92 -6 c-51 -3 -523 -11 -1048 -16 -1609 -17 -1997 -34
-2017 -87 -9 -24 33 -56 202 -153 258 -149 341 -227 420 -395 130 -276 179
-752 205 -1990 5 -264 17 -1317 26 -2340 17 -2084 9 -3619 -21 -3945 -50 -550
-130 -756 -348 -900 -98 -65 -556 -290 -732 -360 -498 -197 -964 -310 -1531
-371 -183 -20 -259 -23 -604 -23 -410 1 -515 8 -860 55 -640 89 -1348 298
-1976 584 -572 261 -974 498 -1324 780 -202 164 -351 304 -1019 964 -359 355
-656 647 -660 648 -3 1 -157 11 -341 22 -184 11 -425 26 -535 33 -284 17 -963
17 -1037 0 -63 -15 -69 -25 -41 -70 70 -110 329 -408 679 -782 901 -962 1918
-1718 2804 -2085 129 -54 271 -108 547 -210 117 -43 211 -80 209 -82 -10 -11
-152 -12 -3276 -33 -1785 -12 -3920 -12 -4307 0 -866 26 -1300 91 -1570 235
-111 59 -187 118 -313 245 -230 229 -413 466 -509 657 -111 220 -172 504 -201
923 -11 167 -27 3240 -16 3240 3 0 55 -22 114 -49 59 -26 145 -65 192 -86 47
-20 132 -59 190 -85 863 -398 1557 -656 2456 -914 771 -221 1678 -412 2554
-535 1479 -209 3020 -211 4137 -5 1244 229 2398 785 3328 1603 675 595 1220
1303 1635 2126 321 636 525 1227 614 1780 63 390 86 763 86 1388 0 385 -3 488
-20 650 -68 656 -212 1134 -551 1822 -220 448 -423 778 -712 1155 -799 1044
-1974 1939 -3647 2775 -508 254 -986 468 -1925 860 -181 76 -323 136 -605 255
-107 45 -305 129 -440 185 -135 57 -445 189 -690 295 -245 106 -474 205 -510
220 -36 15 -216 95 -400 177 -1564 701 -2227 1063 -2712 1482 -294 253 -582
620 -747 951 -148 297 -216 558 -227 870 -10 286 16 508 96 815 205 791 620
1422 1274 1940 351 278 830 535 1324 711 208 74 476 150 662 188 184 38 495
69 910 90 295 15 2181 20 2395 5 555 -37 767 -72 1145 -190 626 -196 1175
-515 1629 -947 460 -436 783 -877 1106 -1506 181 -352 272 -567 465 -1099 130
-357 207 -528 253 -561 l29 -21 23 28 c38 44 65 168 85 397 21 238 42 2739 24
2808 -5 19 -68 53 -323 179 -634 311 -1099 519 -1411 628 -697 245 -907 326
-925 356 -4 5 2 10 12 10 196 14 633 16 2333 13 1114 -2 2266 -8 2560 -14z
m3354 -15522 c58 -94 80 -507 96 -1813 11 -881 38 -4987 41 -6245 l2 -765
-128 -255 c-215 -430 -321 -616 -432 -757 -99 -128 -122 -132 -147 -26 -29
123 -47 439 -66 1148 -15 596 -23 4665 -11 5835 19 1787 39 2044 189 2378 86
192 239 412 340 489 52 40 95 43 116 11z"/>
<path d="M25668 42178 c-355 -479 -557 -816 -888 -1478 -411 -822 -635 -1392
-828 -2111 -582 -2161 -486 -4526 268 -6609 143 -394 299 -754 500 -1148 187
-367 376 -666 453 -716 54 -36 327 -87 777 -146 652 -85 1120 -121 1120 -87
-1 56 -182 370 -417 722 -173 260 -403 693 -547 1034 -459 1081 -741 2310
-828 3601 -15 236 -15 907 1 1115 94 1247 431 2598 944 3795 91 212 119 272
282 605 329 670 380 776 420 865 65 145 65 136 3 164 -29 14 -156 69 -283 122
-126 53 -378 159 -559 235 -181 77 -332 139 -335 139 -4 0 -41 -46 -83 -102z"/>
<path d="M32730 46133 c-538 -19 -952 -69 -1340 -164 -513 -125 -1174 -347
-1588 -533 -675 -304 -1618 -872 -1912 -1153 -91 -86 -108 -113 -92 -147 15
-32 172 -136 301 -198 128 -61 740 -318 759 -318 7 0 100 69 205 153 376 299
448 353 632 472 829 538 1943 947 3005 1105 446 66 541 73 975 74 321 0 427
-4 535 -18 432 -55 792 -133 1207 -262 546 -169 1034 -422 1441 -747 442 -353
800 -839 1006 -1366 21 -52 68 -184 106 -295 116 -340 210 -576 231 -576 19 0
37 120 55 372 13 172 17 462 21 1508 l5 1295 -89 22 c-48 13 -351 90 -673 173
-773 199 -1416 360 -1620 405 -314 69 -731 132 -1025 154 -496 38 -1640 61
-2145 44z"/>
<path d="M29805 22596 c-187 -40 -330 -106 -472 -218 -378 -299 -544 -897
-396 -1432 57 -210 221 -555 379 -804 19 -29 34 -56 34 -60 0 -5 -26 -19 -57
-32 -32 -13 -98 -43 -148 -68 -648 -321 -1071 -790 -1181 -1307 -22 -104 -22
-329 -1 -445 46 -251 162 -465 352 -655 231 -228 562 -377 985 -442 160 -25
641 -24 850 1 491 58 888 192 1219 410 l101 67 253 -218 c298 -258 380 -323
547 -432 264 -173 539 -278 845 -322 120 -17 402 -17 548 0 l117 13 0 28 0 28
-166 -6 c-239 -7 -395 18 -589 98 -227 92 -479 264 -763 518 -135 122 -491
471 -504 496 -8 15 11 39 129 160 204 207 308 345 405 541 110 220 141 344
142 560 1 133 -2 162 -27 258 -36 139 -85 255 -153 363 -176 281 -452 495
-787 613 -49 17 -90 31 -91 31 -5 0 -29 -90 -25 -94 2 -1 33 -13 69 -26 84
-29 207 -91 290 -145 242 -157 404 -392 482 -700 20 -79 23 -115 23 -290 -1
-278 -35 -436 -140 -633 -87 -164 -263 -401 -379 -512 l-37 -35 -242 245
c-411 416 -688 709 -813 860 -216 261 -480 596 -642 812 -225 303 -255 347
-240 352 7 3 49 12 93 21 565 117 1054 433 1288 832 170 290 218 644 125 928
-104 322 -387 547 -798 636 -73 16 -143 22 -305 25 -193 4 -219 2 -320 -20z
m528 -80 c443 -113 685 -496 639 -1009 -21 -232 -90 -435 -209 -614 -211 -318
-580 -561 -993 -654 l-85 -19 -15 21 c-8 11 -59 93 -113 182 -201 330 -334
637 -373 857 -24 138 -15 396 19 541 82 348 289 596 577 688 99 32 173 40 320
36 101 -3 160 -10 233 -29z m-848 -2634 c163 -248 468 -642 876 -1132 283
-339 527 -596 919 -964 90 -85 111 -109 100 -117 -268 -176 -573 -288 -955
-348 -409 -64 -832 -53 -1120 30 -269 78 -493 206 -658 378 -184 192 -284 389
-328 651 -15 93 -16 333 0 421 80 466 427 893 944 1159 64 33 120 60 124 59 5
0 48 -62 98 -137z"/>
<path d="M24625 22604 c-439 -35 -805 -134 -1144 -310 -721 -374 -1196 -1066
-1321 -1924 -84 -576 -23 -1179 167 -1660 220 -557 601 -992 1110 -1267 320
-174 640 -273 1028 -319 169 -21 617 -23 830 -5 593 51 1197 206 1615 414
l105 52 5 1065 c5 1054 5 1066 26 1127 31 90 68 148 121 188 51 39 154 75 214
75 l39 0 0 65 0 65 -590 0 -590 0 0 -65 0 -65 64 0 c34 0 78 -5 97 -12 90 -30
164 -113 207 -230 39 -105 43 -231 40 -1271 l-3 -989 -60 -25 c-328 -135 -836
-248 -1295 -288 -233 -20 -614 -20 -762 1 -255 35 -442 90 -653 193 -420 206
-732 512 -958 941 -167 315 -267 656 -319 1075 -21 173 -18 713 5 890 89 681
330 1204 738 1601 305 297 692 485 1143 556 121 19 179 22 416 22 277 -1 396
-9 636 -44 488 -73 879 -324 1157 -745 57 -86 152 -267 175 -333 11 -32 11
-32 77 -30 l65 2 0 46 c0 78 -30 704 -35 717 -5 16 -217 118 -365 176 -371
145 -774 238 -1265 292 -133 15 -614 27 -720 19z"/>
<path d="M34790 22600 c-699 -61 -1146 -296 -1346 -705 -67 -139 -88 -238 -88
-430 0 -148 2 -165 26 -233 41 -114 85 -179 193 -287 141 -140 301 -243 580
-372 180 -83 305 -132 720 -282 913 -328 1192 -450 1495 -654 148 -100 222
-161 321 -264 152 -160 247 -319 295 -493 31 -115 44 -353 25 -466 -41 -239
-160 -465 -353 -669 -243 -256 -546 -426 -908 -507 -99 -22 -124 -23 -455 -23
-355 0 -458 7 -745 46 -327 45 -628 192 -867 423 -144 138 -217 240 -321 443
l-87 173 -67 0 -68 0 0 -52 c0 -29 5 -163 10 -298 5 -135 10 -291 11 -347 l1
-101 109 -51 c343 -161 853 -273 1461 -321 274 -21 686 -31 826 -20 500 40
957 255 1293 608 300 315 449 657 449 1031 0 276 -58 493 -187 706 -238 391
-619 669 -1288 940 -235 96 -334 131 -850 305 -590 198 -823 296 -1023 430
-252 169 -334 318 -311 567 16 175 58 284 155 405 172 213 450 336 884 390
159 20 595 17 745 -5 626 -91 945 -323 1145 -832 17 -44 50 -119 72 -167 l41
-88 69 0 68 0 -1 53 c-3 212 -26 745 -33 756 -10 16 -133 74 -291 138 -282
114 -685 206 -1065 243 -145 14 -525 20 -640 10z"/>
<path d="M17060 14303 l0 -588 -40 66 c-139 232 -376 367 -648 370 -364 5
-661 -209 -784 -562 -31 -90 -33 -100 -32 -249 0 -179 11 -234 78 -375 135
-284 411 -459 721 -457 128 1 227 22 330 71 144 68 259 170 336 300 l36 61 7
-53 c3 -28 6 -118 6 -199 l0 -148 80 0 80 0 0 1175 0 1175 -85 0 -85 0 0 -587z
m-521 -329 c243 -60 432 -250 492 -494 23 -92 16 -251 -14 -345 -88 -269 -313
-445 -592 -462 -214 -13 -426 78 -555 239 -86 106 -150 287 -150 421 0 306
232 586 535 647 71 14 215 11 284 -6z"/>
<path d="M26388 14298 l-3 -593 -34 64 c-19 35 -66 96 -104 137 -151 162 -333
243 -555 245 -233 3 -413 -70 -577 -235 -119 -121 -176 -220 -222 -387 -22
-78 -24 -284 -4 -374 36 -165 121 -316 242 -430 169 -160 385 -235 614 -214
126 12 166 23 283 80 80 38 119 66 178 121 66 63 144 165 170 223 6 13 10 -54
12 -187 l2 -208 85 0 85 0 0 1175 0 1175 -85 0 -85 0 -2 -592z m-528 -323
c217 -51 403 -222 474 -434 142 -433 -174 -871 -628 -871 -281 0 -539 184
-625 446 -106 324 32 654 338 808 122 62 303 83 441 51z"/>
<path d="M44180 14305 c0 -322 -3 -585 -7 -585 -5 0 -24 28 -43 62 -40 71
-131 172 -199 222 -162 119 -373 171 -577 140 -186 -27 -316 -94 -454 -233
-77 -78 -105 -113 -142 -187 -74 -143 -93 -222 -92 -389 1 -111 6 -157 23
-220 43 -159 114 -278 233 -391 155 -148 331 -216 550 -215 137 1 240 25 361
88 74 38 109 64 182 138 58 58 103 113 125 155 l35 65 3 -207 2 -208 80 0 80
0 1 1143 c1 628 2 1157 3 1175 l2 32 -83 0 -83 0 0 -585z m-530 -331 c311 -73
530 -371 507 -688 -22 -297 -234 -542 -519 -600 -234 -48 -456 20 -620 189
-103 105 -161 232 -179 394 -14 124 4 229 61 346 90 188 283 335 480 368 61
10 210 5 270 -9z"/>
<path d="M40092 14643 c-90 -44 -79 -185 16 -214 79 -23 152 26 152 103 0 54
-25 97 -65 114 -44 18 -62 17 -103 -3z"/>
<path d="M14251 14149 c-260 -34 -479 -184 -614 -421 -15 -25 -41 -88 -59
-140 -31 -89 -33 -99 -32 -248 0 -177 11 -232 75 -369 189 -406 650 -575 1059
-390 131 60 268 188 339 320 l28 50 7 -62 c3 -34 6 -127 6 -205 l0 -144 80 0
80 0 0 795 0 795 -80 0 -80 0 -1 -157 c-1 -87 -4 -182 -7 -211 l-7 -52 -28 54
c-104 200 -335 356 -562 380 -119 13 -141 14 -204 5z m338 -192 c180 -65 313
-186 390 -359 42 -94 55 -161 55 -278 -1 -85 -6 -120 -27 -185 -68 -207 -214
-357 -417 -429 -77 -27 -97 -30 -210 -31 -104 0 -138 4 -200 23 -233 73 -404
263 -454 504 -30 147 -14 276 53 413 75 154 195 268 344 325 115 45 141 49
272 46 99 -2 133 -7 194 -29z"/>
<path d="M20009 14148 c-319 -31 -596 -250 -700 -551 -40 -116 -50 -203 -39
-330 27 -314 217 -577 503 -695 223 -93 488 -85 702 21 307 152 490 477 455
810 -35 344 -257 615 -585 716 -80 25 -239 39 -336 29z m253 -177 c124 -32
212 -82 303 -175 133 -133 195 -284 195 -470 0 -180 -64 -331 -195 -462 -163
-163 -367 -223 -602 -179 -187 35 -369 175 -452 347 -50 103 -71 193 -71 308
0 173 65 327 195 456 129 130 277 191 461 193 59 1 117 -6 166 -18z"/>
<path d="M21815 14150 c-338 -29 -575 -273 -575 -591 0 -178 77 -336 220 -452
l51 -41 -38 -19 c-89 -45 -138 -120 -131 -202 5 -65 34 -107 99 -144 l50 -28
-28 -18 c-49 -32 -131 -116 -162 -164 -68 -108 -80 -258 -31 -386 33 -86 137
-189 243 -239 203 -98 535 -107 754 -20 192 76 307 215 320 386 10 137 -27
239 -122 334 -124 125 -289 179 -600 194 -239 12 -289 22 -332 65 -18 18 -33
41 -33 51 0 36 38 81 89 106 l50 26 68 -20 c89 -26 252 -27 343 -3 276 72 470
310 470 575 0 127 -55 261 -142 350 l-49 50 74 0 c41 0 95 3 121 6 l46 7 0 73
0 74 -32 0 c-18 0 -104 -7 -192 -15 -152 -15 -160 -15 -210 4 -100 37 -207 51
-321 41z m206 -166 c176 -53 289 -172 325 -346 28 -134 -15 -275 -118 -380
-91 -93 -204 -138 -347 -138 -144 0 -244 38 -341 127 -186 172 -185 458 3 629
58 53 123 89 196 109 67 19 217 18 282 -1z m-96 -1379 c254 -11 435 -101 481
-237 48 -145 -11 -290 -145 -357 -114 -57 -204 -75 -364 -73 -120 2 -220 22
-302 60 -79 37 -124 78 -160 144 -39 72 -42 179 -7 250 32 64 101 139 173 187
60 40 61 40 137 36 42 -3 127 -7 187 -10z"/>
<path d="M23575 14149 c-170 -21 -324 -94 -449 -210 -120 -113 -200 -246 -242
-404 -22 -84 -25 -288 -5 -380 36 -165 120 -314 243 -431 169 -160 380 -233
616 -213 253 22 468 158 598 379 l44 75 0 -212 0 -213 85 0 85 0 0 789 c0 744
-1 790 -17 795 -10 2 -47 4 -83 3 l-65 -2 -3 -215 -3 -215 -46 79 c-58 101
-175 220 -269 274 -84 49 -197 88 -280 96 -119 13 -140 14 -209 5z m275 -175
c218 -51 403 -221 474 -433 142 -430 -175 -871 -627 -871 -302 0 -566 206
-642 500 -21 79 -23 234 -6 310 42 178 180 353 345 437 137 69 311 91 456 57z"/>
<path d="M27744 14149 c-351 -22 -655 -268 -750 -609 -28 -100 -26 -319 4
-425 62 -214 191 -382 384 -497 91 -54 188 -86 317 -105 97 -14 118 -14 214 1
257 37 474 175 603 381 254 409 99 955 -334 1170 -141 70 -267 94 -438 84z
m209 -174 c339 -72 571 -425 503 -766 -48 -239 -216 -432 -440 -506 -71 -23
-97 -27 -211 -27 -114 0 -140 4 -210 27 -370 123 -558 554 -392 902 57 117
132 205 243 283 39 27 172 81 227 92 68 13 207 11 280 -5z"/>
<path d="M32135 14149 c-206 -27 -398 -133 -528 -294 -62 -77 -131 -218 -158
-320 -30 -116 -28 -288 5 -416 98 -389 447 -641 840 -608 107 9 155 20 241 56
144 60 298 198 368 330 l36 68 1 -145 c0 -80 3 -175 7 -212 l6 -68 79 0 78 0
-2 792 -3 792 -75 1 -75 0 -6 -60 c-4 -33 -7 -130 -8 -215 l-1 -155 -26 50
c-114 217 -338 375 -569 399 -120 13 -141 14 -210 5z m341 -193 c112 -41 163
-74 251 -161 67 -66 90 -98 122 -166 54 -112 71 -184 71 -296 0 -123 -13 -180
-67 -293 -38 -79 -59 -108 -127 -175 -123 -123 -247 -179 -416 -192 -521 -37
-875 506 -633 970 56 108 174 223 284 275 123 60 182 72 324 68 99 -3 133 -8
191 -30z"/>
<path d="M37085 14145 c-44 -7 -105 -20 -136 -29 -77 -23 -206 -91 -278 -148
-129 -102 -239 -275 -281 -443 -20 -78 -22 -107 -17 -220 6 -148 22 -216 78
-332 72 -150 191 -277 337 -360 146 -82 338 -122 501 -103 192 23 356 97 488
224 117 111 182 216 229 373 24 76 27 105 27 218 -1 159 -21 247 -90 385 -41
81 -63 110 -148 196 -80 80 -117 109 -183 143 -181 93 -348 123 -527 96z m341
-192 c102 -38 173 -84 247 -159 252 -254 256 -667 9 -919 -164 -169 -386 -237
-620 -189 -237 48 -423 223 -499 470 -27 90 -25 287 6 374 56 161 184 313 322
383 121 62 194 78 334 73 104 -3 131 -7 201 -33z"/>
<path d="M39045 14148 c-210 -20 -417 -132 -555 -300 -65 -80 -134 -220 -160
-322 -24 -95 -26 -241 -6 -348 91 -471 551 -763 1015 -644 80 20 202 84 264
137 l47 41 0 89 0 90 -64 -55 c-80 -68 -137 -101 -229 -134 -64 -23 -87 -26
-207 -26 -128 0 -139 2 -220 32 -198 75 -338 217 -407 414 -35 97 -43 262 -19
358 55 222 225 405 440 477 71 24 97 27 211 28 102 0 142 -4 185 -19 88 -30
183 -83 243 -136 30 -28 58 -50 61 -50 3 0 6 38 6 84 l0 84 -47 42 c-27 22
-88 61 -138 86 -130 64 -260 87 -420 72z"/>
<path d="M41364 14148 c-178 -18 -334 -96 -474 -237 -108 -109 -171 -216 -212
-356 -32 -111 -31 -322 1 -440 43 -159 114 -278 233 -391 91 -86 173 -136 289
-175 361 -121 754 28 930 354 l34 62 3 -212 2 -213 83 0 82 0 -3 795 -2 796
-78 -3 -77 -3 -3 -215 -3 -215 -32 57 c-162 283 -447 429 -773 396z m276 -173
c110 -26 223 -89 304 -169 200 -198 257 -467 154 -727 -131 -332 -519 -495
-858 -362 -412 163 -548 689 -267 1030 159 193 425 284 667 228z"/>
<path d="M45490 14148 c-339 -42 -623 -289 -705 -613 -105 -415 130 -850 533
-985 461 -154 951 103 1084 567 32 111 32 303 0 421 -108 402 -496 661 -912
610z m259 -174 c198 -48 360 -183 446 -369 47 -101 60 -166 59 -285 -1 -84 -6
-121 -27 -185 -68 -206 -224 -366 -422 -432 -70 -23 -96 -27 -210 -27 -114 0
-140 4 -210 27 -314 105 -507 439 -440 762 52 251 267 464 520 515 70 14 215
11 284 -6z"/>
<path d="M29298 14135 c-149 -41 -276 -141 -317 -250 -28 -76 -28 -175 1 -252
25 -69 113 -162 198 -210 30 -17 150 -70 265 -118 376 -154 440 -201 466 -339
22 -119 -40 -218 -171 -272 -53 -22 -85 -28 -179 -32 -71 -3 -134 0 -170 8
-131 29 -238 107 -287 210 l-29 60 -84 0 -83 0 7 -37 c12 -67 66 -163 128
-225 70 -71 183 -130 297 -154 94 -21 270 -20 370 1 160 33 294 126 348 243
23 49 27 69 26 147 -1 130 -26 188 -118 279 -85 85 -145 119 -400 227 -254
108 -317 141 -370 192 -129 124 -59 316 135 371 203 57 387 -15 454 -180 l24
-59 82 -3 82 -3 -7 48 c-10 73 -53 151 -120 219 -103 102 -219 145 -396 143
-58 0 -126 -7 -152 -14z"/>
<path d="M33890 14134 c-139 -37 -253 -123 -307 -231 -24 -50 -28 -70 -28
-143 0 -76 4 -93 33 -152 60 -123 147 -180 477 -313 233 -94 293 -126 362
-188 42 -39 56 -60 69 -104 42 -143 -20 -255 -173 -314 -81 -31 -261 -38 -352
-14 -132 34 -225 105 -276 210 l-27 55 -84 0 c-46 0 -84 -4 -84 -8 0 -5 9 -35
20 -67 61 -179 222 -307 434 -346 96 -18 279 -13 368 10 157 40 272 121 324
227 56 115 41 280 -36 387 -74 103 -170 161 -494 298 -323 136 -388 189 -390
318 -3 213 326 322 547 182 51 -33 101 -102 118 -163 l10 -38 85 0 85 0 -6 38
c-12 69 -72 180 -125 232 -57 55 -166 112 -248 129 -73 15 -236 13 -302 -5z"/>
<path d="M35300 14134 c-137 -36 -253 -121 -306 -224 -26 -49 -29 -65 -29
-150 0 -119 22 -169 110 -255 73 -71 150 -111 409 -216 354 -142 429 -206 430
-364 1 -116 -52 -185 -185 -237 -77 -30 -272 -37 -355 -13 -133 39 -213 99
-266 200 l-33 65 -84 0 -83 0 6 -32 c12 -65 75 -175 133 -232 67 -68 186 -129
294 -152 92 -20 274 -19 372 1 93 19 204 73 261 125 27 25 60 70 79 109 29 60
32 73 32 161 -1 76 -5 105 -22 143 -68 149 -158 215 -469 347 -365 154 -431
198 -454 303 -31 135 61 245 232 281 185 38 365 -46 419 -195 l22 -59 83 0 84
0 -7 33 c-19 100 -81 205 -158 268 -50 40 -144 83 -213 98 -73 15 -235 13
-302 -5z"/>
<path d="M47086 14134 c-89 -21 -189 -79 -246 -140 -62 -69 -90 -141 -90 -234
0 -135 72 -249 209 -330 58 -34 300 -140 424 -186 63 -23 200 -97 234 -127 46
-40 71 -86 83 -148 15 -79 -1 -137 -56 -198 -66 -73 -145 -102 -295 -109 -133
-5 -191 5 -287 51 -75 37 -152 115 -177 182 l-18 45 -85 0 -85 0 6 -35 c11
-66 67 -165 129 -227 113 -113 277 -170 485 -169 261 1 448 92 529 256 26 54
29 70 28 150 -1 129 -26 188 -118 280 -83 83 -148 119 -456 250 -271 117 -330
155 -365 237 -47 114 25 250 157 294 156 52 307 29 408 -62 42 -38 90 -121 90
-156 0 -16 11 -18 85 -18 82 0 85 1 85 23 0 38 -36 133 -69 181 -64 93 -182
170 -299 195 -72 15 -234 13 -306 -5z"/>
<path d="M17540 14120 c0 -5 72 -180 160 -387 89 -208 238 -561 333 -785 l172
-408 101 0 101 0 56 133 c31 72 121 285 200 472 80 187 205 483 280 658 74
174 132 319 128 321 -10 6 -169 4 -178 -3 -5 -3 -136 -312 -292 -686 -155
-374 -286 -683 -290 -688 -4 -4 -135 299 -291 673 -157 375 -288 686 -291 692
-9 14 -189 22 -189 8z"/>
<path d="M40067 14123 c-4 -3 -7 -361 -7 -795 l0 -788 85 0 85 0 0 793 0 792
-78 3 c-43 1 -81 -1 -85 -5z"/>
</g>
</svg>
