<?xml version="1.0" standalone="no"?>
<!DOCTYPE svg PUBLIC "-//W3C//DTD SVG 20010904//EN"
 "http://www.w3.org/TR/2001/REC-SVG-20010904/DTD/svg10.dtd">
<svg version="1.0" xmlns="http://www.w3.org/2000/svg"
 width="6250.000000pt" height="6250.000000pt" viewBox="0 0 6250.000000 6250.000000"
 preserveAspectRatio="xMidYMid meet">

<g transform="translate(0.000000,6250.000000) scale(0.100000,-0.100000)"
fill="#000000" stroke="none">
<path d="M27270 46340 c-384 -7 -460 -13 -636 -49 -443 -91 -822 -356 -1034
-725 -100 -174 -163 -366 -180 -545 -49 -533 -55 -2874 -30 -10840 l12 -3594
86 -156 c47 -86 107 -189 134 -229 158 -236 398 -447 640 -562 137 -65 331
-85 928 -95 190 -3 460 -8 600 -10 140 -3 2233 -8 4651 -12 l4396 -6 149 77
c250 131 406 248 547 411 132 152 265 376 310 520 9 28 20 113 26 190 112
1484 120 12497 11 14275 -13 209 -20 246 -69 372 -98 250 -258 463 -473 631
-99 77 -157 112 -388 239 l-175 96 -1825 6 c-3130 11 -7288 14 -7680 6z m888
-150 c182 -16 212 -34 125 -72 -1108 -482 -1517 -808 -1838 -1463 -171 -348
-222 -536 -245 -890 -32 -502 10 -833 143 -1146 230 -537 642 -918 1542 -1429
427 -243 1260 -633 2015 -945 1015 -419 1414 -596 1970 -874 861 -431 1411
-802 1852 -1247 681 -689 930 -1339 905 -2359 -14 -551 -99 -901 -350 -1444
-323 -698 -860 -1291 -1521 -1680 -285 -168 -714 -349 -937 -396 -621 -132
-2061 -123 -2753 16 -687 137 -1282 371 -1758 688 -215 144 -279 193 -452 349
-364 327 -667 766 -850 1230 -20 52 -59 157 -87 235 -62 173 -131 310 -170
338 -16 11 -48 23 -71 27 -50 9 -64 30 -79 121 -26 162 -30 520 -39 3146 -14
4217 7 6503 60 6786 11 55 71 198 124 292 130 234 354 438 621 568 186 90 292
114 627 140 315 25 930 29 1166 9z m6802 0 c1302 -14 1653 -30 1840 -81 217
-59 458 -230 656 -467 127 -153 174 -241 209 -398 84 -376 94 -952 95 -5571
l0 -3173 -312 0 c-450 0 -1403 -19 -1535 -30 -62 -5 -122 -14 -134 -20 -19
-11 -20 -13 -4 -30 9 -10 67 -47 128 -82 145 -83 205 -138 250 -230 40 -83 60
-159 81 -303 42 -284 53 -640 65 -2000 6 -610 13 -1312 15 -1560 7 -554 -7
-1258 -29 -1456 -23 -220 -64 -359 -128 -429 -61 -68 -235 -167 -464 -264
-463 -196 -911 -286 -1430 -286 -554 0 -1059 102 -1633 332 -158 64 -470 216
-619 302 -324 188 -449 295 -1086 927 l-360 357 -360 21 c-198 11 -416 23
-485 26 -131 6 -388 -9 -402 -23 -19 -19 189 -266 481 -571 510 -535 1057
-953 1576 -1205 83 -40 261 -115 398 -166 136 -51 246 -94 245 -96 -2 -1
-1022 -8 -2268 -15 -2598 -15 -2864 -10 -3216 51 -280 49 -396 114 -589 329
-282 316 -346 482 -375 971 -9 164 -15 2000 -6 2000 2 0 135 -58 295 -130 375
-168 507 -223 748 -313 481 -181 940 -317 1493 -441 875 -196 1774 -288 2580
-265 881 25 1508 164 2134 472 215 105 323 168 517 299 734 492 1295 1194
1637 2043 140 349 217 645 251 965 35 326 38 900 7 1160 -47 387 -143 686
-363 1124 -91 183 -140 267 -269 461 -354 536 -822 984 -1487 1423 -498 329
-1096 641 -1787 932 -107 45 -305 128 -440 185 -719 302 -840 353 -1010 427
-1335 578 -1859 841 -2230 1117 -241 179 -466 444 -595 701 -160 315 -186 659
-81 1072 184 727 699 1288 1476 1608 124 51 351 127 455 154 296 74 625 95
1485 96 794 0 1036 -16 1306 -85 782 -200 1370 -671 1809 -1449 134 -239 241
-482 381 -867 80 -222 108 -287 136 -316 29 -31 47 -29 62 10 43 103 56 395
56 1293 l0 730 -322 157 c-452 218 -649 301 -984 413 -160 53 -369 139 -369
150 0 23 1170 29 2505 14z m2715 -9843 c24 -57 34 -185 45 -540 10 -365 25
-1938 36 -3852 l7 -1170 -117 -233 c-155 -308 -287 -505 -317 -475 -53 53 -69
746 -69 3093 0 2210 12 2567 89 2793 49 142 177 343 249 392 48 33 60 31 77
-8z"/>
<path d="M29187 40292 c-21 -26 -177 -246 -245 -349 -190 -283 -529 -962 -684
-1367 -223 -584 -374 -1302 -419 -1989 -15 -232 -6 -865 15 -1082 86 -869 311
-1676 666 -2380 174 -346 283 -511 353 -534 50 -17 300 -57 527 -85 448 -56
640 -69 640 -43 -1 21 -93 187 -176 314 -43 67 -107 166 -142 220 -89 138
-265 496 -349 708 -250 634 -407 1335 -464 2065 -16 199 -16 676 0 850 50 570
176 1166 370 1750 129 387 238 644 463 1095 153 305 240 493 236 507 -2 5 -60
33 -128 62 -307 131 -452 192 -547 232 -94 39 -102 41 -116 26z"/>
<path d="M33605 42744 c-264 -14 -417 -27 -534 -44 -350 -51 -975 -245 -1346
-417 -491 -228 -1160 -651 -1227 -776 -24 -45 93 -114 440 -261 162 -69 236
-95 245 -89 6 6 95 76 196 156 275 219 461 337 756 482 738 361 1627 549 2336
495 446 -35 946 -172 1324 -365 245 -124 433 -260 616 -445 257 -260 392 -496
547 -955 49 -145 111 -295 122 -295 12 0 18 34 29 155 17 185 22 421 25 1148
l3 699 -21 9 c-42 17 -1167 302 -1456 368 -318 73 -550 104 -906 121 -219 10
-1029 20 -1149 14z"/>
<path d="M7910 25208 c-492 -23 -896 -193 -1211 -507 -221 -222 -368 -478
-448 -783 -60 -226 -66 -278 -65 -588 0 -268 2 -293 27 -422 114 -582 444
-1024 942 -1264 204 -98 451 -162 705 -183 213 -17 632 11 880 59 238 47 504
131 670 213 l105 52 5 730 c6 769 6 769 52 839 42 62 116 105 186 106 31 0 32
1 32 45 l0 45 -400 0 -400 0 0 -45 0 -45 45 0 c94 0 171 -68 205 -180 20 -63
20 -92 18 -800 l-3 -734 -75 -28 c-400 -153 -1032 -232 -1399 -175 -463 73
-850 357 -1070 786 -153 298 -221 609 -221 1011 0 458 105 846 313 1161 217
328 563 552 955 620 227 38 658 20 881 -37 243 -63 479 -228 633 -445 49 -68
117 -192 136 -246 10 -31 14 -33 58 -33 l47 0 -7 183 c-3 100 -9 217 -12 259
-7 89 -5 87 -156 154 -409 181 -947 276 -1428 252z"/>
<path d="M32849 25206 c-306 -64 -523 -287 -604 -618 -23 -91 -31 -319 -15
-404 29 -157 122 -378 253 -603 l55 -95 -117 -56 c-258 -125 -441 -260 -580
-425 -118 -140 -187 -261 -232 -405 -21 -65 -24 -95 -24 -225 0 -172 13 -231
76 -362 130 -270 401 -454 784 -530 126 -25 528 -25 700 0 313 46 562 134 760
267 68 46 79 50 93 38 9 -8 85 -73 167 -144 185 -160 255 -215 368 -289 167
-108 360 -184 552 -216 72 -12 423 -7 458 6 9 4 17 15 17 24 0 15 -13 17 -122
13 -262 -8 -452 60 -712 255 -106 79 -329 279 -459 411 l-99 99 62 59 c147
140 278 318 342 466 51 119 70 204 71 328 1 112 -13 181 -59 298 -82 208 -293
415 -525 514 -125 54 -137 56 -149 23 -6 -15 -8 -30 -5 -33 3 -3 37 -18 76
-33 298 -116 485 -364 515 -685 8 -87 -10 -257 -37 -355 -37 -135 -142 -309
-273 -454 l-69 -77 -109 109 c-177 175 -550 571 -630 668 -279 339 -598 758
-586 770 2 2 56 18 119 34 147 38 223 67 356 135 387 199 597 518 580 880 -5
120 -28 199 -82 292 -81 139 -247 253 -440 305 -103 27 -374 36 -476 15z m350
-52 c200 -49 355 -193 416 -386 77 -242 19 -549 -145 -773 -48 -65 -162 -172
-241 -225 -112 -77 -273 -144 -440 -183 -24 -6 -31 1 -108 131 -220 365 -292
597 -262 843 27 221 111 390 248 499 61 48 103 69 178 91 80 23 265 25 354 3z
m-568 -1806 c126 -188 316 -433 579 -748 206 -246 262 -307 507 -546 l216
-210 -79 -47 c-166 -97 -402 -172 -638 -203 -158 -21 -513 -15 -626 11 -440
98 -710 366 -760 755 -21 160 5 327 74 483 61 139 217 324 366 433 79 58 264
164 287 164 6 0 40 -42 74 -92z"/>
<path d="M52905 25204 c-649 -87 -1147 -464 -1384 -1047 -102 -250 -151 -514
-151 -813 0 -672 275 -1248 749 -1566 289 -194 561 -282 946 -307 388 -26 753
41 1055 195 331 169 567 409 735 749 222 449 268 1053 118 1555 -165 551 -518
937 -1043 1137 -205 78 -430 113 -720 112 -113 -1 -250 -7 -305 -15z m655 -83
c203 -47 350 -114 526 -242 174 -125 349 -342 453 -559 281 -589 276 -1396
-11 -1975 -202 -407 -560 -695 -968 -779 -350 -71 -715 -32 -995 106 -357 176
-630 501 -765 906 -90 272 -125 520 -117 832 9 369 70 636 208 915 146 297
339 501 624 663 106 60 224 103 361 131 143 30 140 29 374 26 179 -2 231 -6
310 -24z"/>
<path d="M37800 25194 c-472 -75 -750 -272 -830 -588 -43 -171 -20 -340 63
-453 138 -187 373 -314 973 -529 641 -229 912 -357 1127 -532 162 -133 274
-307 307 -480 20 -100 8 -290 -24 -381 -95 -272 -343 -514 -642 -627 -181 -68
-343 -87 -624 -74 -370 17 -539 49 -712 136 -221 111 -371 265 -494 508 l-49
96 -46 0 -47 0 5 -167 c3 -93 8 -215 12 -273 l6 -105 65 -32 c145 -70 409
-143 665 -182 235 -36 375 -45 685 -46 258 0 318 3 390 18 432 93 801 388 950
760 44 110 61 205 61 339 -1 360 -168 638 -529 881 -204 137 -471 249 -1073
452 -456 154 -615 227 -770 356 -104 87 -144 205 -120 358 53 342 369 511 954
511 274 0 465 -35 642 -119 192 -91 311 -233 415 -496 51 -129 56 -135 113
-135 l48 0 -5 33 c-3 17 -8 137 -11 266 -4 128 -9 239 -11 246 -11 29 -291
139 -470 186 -234 61 -385 80 -669 85 -199 2 -282 0 -355 -12z"/>
<path d="M56415 25195 c-200 -32 -382 -91 -505 -162 -36 -21 -104 -76 -151
-123 -69 -68 -94 -102 -127 -170 -49 -99 -72 -200 -72 -308 0 -174 71 -303
233 -425 183 -137 345 -210 961 -432 589 -213 873 -360 1066 -554 146 -147
220 -291 240 -471 29 -256 -68 -491 -288 -702 -193 -185 -424 -288 -709 -317
-175 -18 -646 13 -800 53 -161 42 -333 137 -466 257 -93 85 -159 175 -234 322
l-55 107 -46 0 -47 0 6 -177 c4 -98 7 -220 8 -270 l1 -93 52 -26 c196 -99 540
-183 923 -224 55 -6 233 -14 395 -17 243 -4 311 -3 385 10 280 50 518 168 719
357 306 290 417 651 315 1020 -59 213 -217 418 -449 581 -220 156 -479 268
-1090 474 -462 155 -631 231 -769 344 -76 62 -98 88 -128 150 -22 46 -26 68
-26 140 1 167 47 275 165 387 157 148 402 214 796 214 559 0 869 -166 1027
-550 15 -36 40 -95 57 -132 l31 -68 49 0 49 0 -5 118 c-3 64 -9 188 -12 276
l-6 158 -92 43 c-180 85 -385 146 -641 191 -130 23 -184 27 -410 30 -194 2
-283 0 -350 -11z"/>
<path d="M11015 23538 c-373 -909 -696 -1688 -718 -1730 -77 -146 -169 -222
-289 -237 l-53 -6 -3 -42 -3 -43 376 0 376 0 -3 43 -3 42 -70 5 c-141 11 -205
83 -205 233 0 74 19 130 168 492 136 331 115 305 272 332 58 9 117 12 185 8
201 -13 274 -34 784 -225 504 -188 619 -220 852 -239 67 -6 122 -11 123 -13
12 -21 96 -222 117 -283 35 -98 37 -156 7 -215 -31 -60 -83 -89 -166 -91 l-62
-2 0 -43 0 -44 441 0 440 0 -3 42 c-3 42 -3 43 -48 49 -128 18 -221 102 -308
274 -16 33 -336 771 -710 1640 -374 869 -693 1608 -707 1643 -28 62 -28 62
-70 62 l-42 0 -678 -1652z m1185 27 c304 -704 556 -1290 561 -1302 8 -22 7
-22 -59 -17 -231 19 -405 65 -802 215 -350 133 -556 203 -660 225 -104 22
-370 25 -439 5 -23 -7 -45 -11 -47 -9 -2 2 193 481 432 1063 240 583 440 1071
445 1084 5 13 11 22 14 20 2 -2 252 -580 555 -1284z"/>
<path d="M13960 25145 l0 -45 44 0 c91 0 164 -59 207 -166 l24 -59 0 -1540 c0
-1499 -1 -1542 -19 -1599 -27 -81 -83 -139 -155 -160 -30 -9 -65 -16 -78 -16
-20 0 -23 -5 -23 -40 l0 -40 1359 0 1359 0 5 23 c32 126 116 562 110 567 -7 7
-106 31 -109 27 -1 -1 -15 -32 -33 -68 -61 -130 -121 -206 -241 -302 -89 -71
-204 -129 -314 -157 -76 -19 -111 -20 -828 -20 l-748 0 2 1663 c3 1571 4 1665
21 1715 25 72 76 126 143 152 30 11 68 20 85 20 29 0 30 1 27 43 l-3 42 -417
3 -418 2 0 -45z"/>
<path d="M16970 25145 c0 -44 1 -45 33 -45 78 -1 151 -60 203 -166 l29 -59 6
-1090 c6 -1129 6 -1131 49 -1295 99 -373 358 -683 714 -850 263 -124 560 -180
895 -167 760 28 1321 477 1381 1105 6 64 10 525 10 1158 0 1017 1 1054 20
1115 45 148 147 248 253 249 l37 0 0 45 0 45 -365 0 -365 0 0 -45 0 -45 38 0
c128 0 246 -118 282 -280 8 -41 10 -330 8 -1160 -4 -1196 -2 -1135 -58 -1300
-53 -153 -126 -267 -254 -396 -145 -145 -306 -242 -525 -314 -273 -90 -605
-105 -891 -39 -514 119 -878 529 -931 1049 -6 69 -9 466 -7 1160 l3 1055 26
56 c50 107 125 169 204 169 35 0 35 0 35 45 l0 45 -415 0 -415 0 0 -45z"/>
<path d="M21067 25183 c-18 -32 -91 -603 -79 -615 5 -5 25 -8 43 -6 31 3 38
10 76 78 72 129 96 163 162 233 120 127 283 214 444 236 45 6 241 11 463 11
l384 0 0 -1622 c0 -1089 -4 -1644 -11 -1688 -19 -119 -60 -183 -144 -221 -22
-10 -59 -19 -82 -19 l-43 0 0 -45 0 -45 421 0 420 0 -3 43 -3 42 -50 3 c-87 6
-145 53 -192 157 -17 38 -18 128 -21 1718 l-2 1679 432 -4 c418 -4 435 -5 503
-27 231 -75 394 -220 513 -457 32 -64 45 -74 93 -74 24 0 29 4 29 23 0 33 -58
480 -72 550 l-11 57 -1633 0 c-898 0 -1635 -3 -1637 -7z"/>
<path d="M24837 25183 c-18 -32 -91 -603 -79 -615 5 -5 25 -8 43 -6 31 3 38
10 87 97 68 122 106 173 180 243 117 112 266 186 415 207 45 6 241 11 463 11
l384 0 0 -1622 c0 -1089 -4 -1644 -11 -1688 -19 -119 -60 -183 -144 -221 -22
-10 -59 -19 -82 -19 l-43 0 0 -45 0 -45 421 0 420 0 -3 43 -3 42 -56 5 c-82 7
-129 43 -171 127 l-33 68 -3 1678 -2 1679 432 -4 c418 -4 435 -5 503 -27 236
-77 386 -213 521 -471 28 -52 31 -55 72 -58 38 -3 42 -1 42 21 0 33 -58 480
-72 550 l-11 57 -1633 0 c-898 0 -1635 -3 -1637 -7z"/>
<path d="M28607 25183 c-4 -3 -7 -24 -7 -45 l0 -38 47 0 c90 0 156 -50 206
-157 l22 -48 3 -1535 c2 -1075 -1 -1551 -9 -1587 -22 -111 -105 -189 -212
-202 l-52 -6 -3 -42 -3 -43 421 0 421 0 -3 43 -3 42 -56 5 c-82 7 -129 43
-171 127 l-33 68 -3 1544 c-2 1366 -1 1551 13 1605 27 104 86 158 195 179 l60
12 0 42 0 43 -413 0 c-228 0 -417 -3 -420 -7z"/>
<path d="M40866 23558 c-368 -898 -689 -1675 -714 -1726 -75 -156 -179 -247
-297 -259 l-55 -6 0 -43 0 -44 371 0 370 0 -3 43 -3 42 -71 6 c-81 6 -128 29
-161 79 -55 81 -54 185 2 331 20 51 83 209 142 351 l105 258 50 15 c99 29 211
38 336 26 145 -14 250 -42 495 -133 841 -309 811 -301 1162 -334 l50 -5 54
-122 c77 -174 93 -230 89 -304 -6 -105 -57 -154 -170 -162 l-73 -6 -3 -42 -3
-43 440 0 441 0 0 45 c0 45 0 45 -35 45 -94 0 -194 70 -276 195 -41 62 -25 25
-888 2030 l-598 1390 -44 3 -44 2 -669 -1632z m1182 -3 c303 -704 554 -1288
557 -1297 6 -16 0 -17 -62 -12 -232 19 -421 72 -918 259 -487 183 -551 199
-785 199 -96 0 -172 -5 -199 -13 -23 -7 -44 -11 -46 -9 -6 7 889 2168 895
2161 4 -4 255 -584 558 -1288z"/>
<path d="M43810 25145 l0 -45 47 0 c92 0 162 -55 207 -164 l21 -51 3 -1529 c3
-1677 5 -1603 -56 -1691 -35 -50 -98 -85 -165 -94 l-52 -6 -3 -42 -3 -43 320
0 321 0 0 45 0 45 -53 0 c-81 0 -135 39 -178 126 l-34 69 -3 1580 c-2 1549 -2
1579 17 1560 21 -22 2512 -3221 2635 -3383 l78 -103 41 3 42 3 5 1735 c5 1666
6 1737 24 1783 33 86 106 143 197 154 l49 6 0 43 0 44 -315 0 -315 0 0 -45 0
-45 45 0 c108 0 188 -84 214 -225 9 -44 11 -461 9 -1519 l-3 -1459 -1280 1646
-1280 1647 -267 0 -268 0 0 -45z"/>
<path d="M47761 25123 c-13 -78 -56 -407 -67 -501 l-7 -63 44 3 c44 3 44 4 84
78 62 116 109 181 177 248 81 78 134 117 222 158 144 68 154 69 626 69 l425 0
3 -1595 c1 -975 -1 -1629 -7 -1682 -16 -139 -56 -208 -146 -249 -22 -10 -59
-19 -82 -19 l-43 0 0 -45 0 -45 420 0 420 0 0 39 c0 44 -10 51 -69 51 -24 0
-54 11 -85 30 -63 40 -102 122 -116 241 -7 54 -10 652 -8 1679 l3 1595 425 0
c468 0 482 -2 619 -65 176 -82 302 -214 422 -440 22 -41 28 -45 67 -48 35 -3
42 0 42 16 0 25 -58 471 -71 550 l-11 62 -1638 0 -1638 0 -11 -67z"/>
<path d="M20750 19433 l0 -458 -32 55 c-65 115 -207 223 -346 264 -284 83
-597 -58 -726 -326 -53 -111 -68 -179 -67 -302 1 -177 61 -318 190 -447 60
-60 94 -85 161 -117 102 -48 163 -62 278 -62 157 0 284 49 397 152 38 35 85
89 106 120 l37 57 7 -154 7 -155 59 0 59 0 0 915 0 915 -65 0 -65 0 0 -457z
m-401 -258 c185 -44 341 -205 380 -393 71 -344 -227 -663 -574 -614 -255 37
-445 256 -445 512 0 330 312 572 639 495z"/>
<path d="M28000 19428 l0 -463 -23 44 c-65 128 -207 241 -362 287 -82 25 -248
25 -330 0 -154 -46 -305 -164 -378 -296 -105 -191 -111 -424 -15 -614 84 -167
237 -290 410 -331 82 -19 225 -19 301 1 145 37 287 142 360 265 l37 64 0 -163
0 -162 65 0 65 0 0 915 0 915 -65 0 -65 0 0 -462z m-418 -249 c205 -43 370
-222 400 -434 39 -275 -160 -537 -439 -577 -250 -36 -493 124 -567 371 -18 62
-21 193 -5 261 39 171 193 327 370 374 66 18 169 20 241 5z"/>
<path d="M41830 19428 l0 -463 -23 44 c-65 128 -207 241 -362 287 -82 25 -248
25 -330 0 -154 -46 -305 -164 -378 -296 -105 -191 -111 -424 -15 -614 84 -167
237 -290 410 -331 82 -19 225 -19 301 1 145 37 287 142 360 265 l37 64 0 -163
0 -162 65 0 65 0 0 915 0 915 -65 0 -65 0 0 -462z m-418 -249 c205 -43 370
-222 400 -434 39 -275 -160 -537 -439 -577 -250 -36 -493 124 -567 371 -18 62
-21 193 -5 261 39 171 193 327 370 374 66 18 169 20 241 5z"/>
<path d="M38648 19695 c-15 -8 -31 -30 -37 -48 -21 -64 20 -117 90 -117 29 0
43 7 63 31 40 47 30 106 -23 134 -37 18 -58 19 -93 0z"/>
<path d="M18555 19314 c-184 -29 -371 -157 -458 -314 -105 -191 -111 -424 -15
-614 84 -167 237 -290 410 -331 83 -19 225 -19 302 1 144 37 296 154 363 279
l32 60 1 -167 0 -168 65 0 65 0 0 615 0 615 -65 0 -65 0 0 -162 0 -163 -36 62
c-71 119 -202 223 -333 264 -64 19 -208 32 -266 23z m217 -135 c205 -43 370
-222 400 -434 39 -275 -160 -537 -439 -577 -250 -36 -493 124 -567 371 -18 62
-21 193 -5 261 39 171 193 327 370 374 66 18 169 20 241 5z"/>
<path d="M23008 19310 c-246 -42 -452 -224 -524 -465 -29 -95 -24 -257 10
-362 87 -268 333 -443 620 -443 189 0 323 56 456 190 96 96 137 168 170 296
39 150 18 316 -56 454 -130 240 -407 375 -676 330z m214 -131 c205 -43 370
-222 400 -434 39 -275 -160 -537 -439 -577 -250 -36 -493 124 -567 371 -18 62
-21 193 -5 261 39 171 193 327 370 374 66 18 169 20 241 5z"/>
<path d="M24382 19305 c-181 -41 -315 -158 -363 -317 -18 -57 -21 -87 -17
-160 5 -76 11 -100 41 -161 36 -73 87 -135 141 -173 l29 -21 -46 -26 c-58 -34
-87 -81 -87 -140 0 -51 30 -96 83 -123 l30 -16 -34 -26 c-103 -79 -150 -161
-157 -272 -13 -236 192 -390 517 -390 253 1 419 77 493 227 29 60 33 77 33
148 -1 102 -27 165 -99 233 -100 95 -203 127 -472 146 -205 15 -245 26 -266
72 -14 29 0 59 40 89 31 23 68 24 175 5 191 -34 395 53 497 212 105 161 92
372 -31 511 l-40 46 93 3 93 3 3 58 c4 67 21 62 -173 46 -123 -11 -133 -10
-194 11 -82 27 -206 34 -289 15z m237 -124 c224 -70 316 -315 191 -510 -36
-58 -78 -92 -158 -129 -50 -24 -69 -27 -157 -27 -93 0 -105 2 -167 33 -295
145 -260 538 57 638 60 19 164 17 234 -5z m68 -1091 c151 -41 220 -106 230
-219 5 -52 2 -68 -21 -116 -45 -90 -130 -137 -290 -157 -78 -10 -109 -9 -189
4 -163 27 -252 87 -283 193 -31 108 18 205 151 304 28 21 37 22 175 18 108 -3
166 -10 227 -27z"/>
<path d="M25782 19309 c-245 -41 -455 -247 -508 -499 -69 -327 133 -665 448
-750 107 -29 270 -25 362 8 133 48 247 143 319 263 l37 64 0 -168 0 -167 65 0
65 0 0 615 0 615 -65 0 -65 0 0 -161 0 -162 -48 74 c-135 206 -368 308 -610
268z m252 -134 c176 -46 315 -176 366 -343 25 -80 27 -215 4 -293 -55 -187
-202 -325 -389 -364 -88 -18 -122 -18 -210 0 -329 70 -503 422 -358 724 104
216 358 336 587 276z"/>
<path d="M28998 19310 c-246 -42 -452 -224 -524 -465 -29 -95 -24 -257 10
-362 87 -268 333 -443 620 -443 189 0 323 56 456 190 96 96 137 168 170 296
51 200 -2 418 -142 577 -138 158 -379 242 -590 207z m214 -131 c205 -43 370
-222 400 -434 39 -275 -160 -537 -439 -577 -250 -36 -493 124 -567 371 -18 62
-21 193 -5 261 39 171 193 327 370 374 66 18 169 20 241 5z"/>
<path d="M30290 19309 c-75 -14 -185 -75 -224 -123 -93 -113 -88 -262 13 -364
54 -56 137 -101 314 -171 287 -114 347 -165 347 -291 0 -115 -88 -187 -250
-205 -158 -18 -319 56 -380 175 l-20 40 -66 0 -66 0 6 -26 c24 -95 103 -194
194 -242 158 -84 420 -84 564 1 142 83 194 240 127 382 -48 102 -138 163 -414
279 -211 89 -265 125 -290 190 -60 156 137 291 339 232 74 -22 149 -91 165
-153 l12 -43 65 0 66 0 -7 38 c-37 200 -260 327 -495 281z"/>
<path d="M32441 19310 c-141 -30 -249 -88 -342 -183 -112 -115 -168 -245 -176
-413 -10 -197 52 -361 187 -495 123 -122 261 -179 435 -179 158 0 284 47 393
146 59 53 142 160 142 183 0 6 5 11 10 11 6 0 10 -60 10 -160 l0 -160 65 0 65
0 0 615 0 615 -65 0 -65 0 -1 -162 c0 -130 -3 -159 -12 -144 -85 134 -117 171
-207 231 -119 81 -310 122 -439 95z m254 -135 c228 -60 385 -263 385 -500 0
-352 -355 -601 -686 -481 -266 97 -405 386 -314 652 54 157 201 290 363 330
73 17 182 17 252 -1z"/>
<path d="M33860 19309 c-75 -14 -185 -75 -224 -123 -93 -113 -88 -262 13 -364
54 -56 137 -101 314 -171 287 -114 347 -165 347 -291 0 -115 -88 -187 -250
-205 -158 -18 -319 56 -380 175 l-20 40 -66 0 -66 0 6 -26 c24 -95 103 -194
194 -242 158 -84 420 -84 564 1 142 83 194 240 127 382 -48 102 -138 163 -414
279 -211 89 -265 125 -290 190 -60 156 137 291 339 232 74 -22 149 -91 165
-153 l12 -43 65 0 66 0 -7 38 c-37 200 -260 327 -495 281z"/>
<path d="M34957 19309 c-118 -24 -226 -99 -268 -186 -27 -55 -30 -159 -6 -214
22 -52 80 -113 146 -153 31 -19 138 -68 239 -109 205 -85 273 -123 308 -176
48 -73 39 -185 -19 -239 -89 -82 -296 -103 -433 -43 -56 25 -116 81 -145 136
l-24 45 -67 0 -67 0 16 -47 c39 -117 136 -212 261 -255 58 -20 86 -23 207 -23
163 0 235 19 320 83 75 57 109 119 113 208 10 189 -83 282 -418 419 -262 108
-320 154 -320 255 0 117 126 200 282 187 115 -10 199 -69 231 -163 l14 -39 61
-3 c60 -3 62 -2 62 21 0 14 -7 43 -15 66 -48 136 -180 225 -352 235 -43 3
-100 1 -126 -5z"/>
<path d="M36335 19314 c-11 -2 -45 -9 -75 -15 -73 -14 -203 -78 -265 -129
-293 -244 -314 -669 -46 -940 63 -64 93 -85 171 -123 112 -54 170 -67 290 -67
120 0 178 13 290 67 181 87 305 249 346 453 65 326 -140 648 -469 736 -55 15
-208 26 -242 18z m199 -139 c176 -46 315 -176 366 -343 25 -80 27 -215 4 -293
-55 -187 -202 -325 -389 -364 -88 -18 -122 -18 -210 0 -329 70 -503 422 -358
724 104 216 358 336 587 276z"/>
<path d="M37808 19310 c-241 -41 -432 -208 -514 -450 -29 -85 -27 -292 4 -380
68 -191 211 -337 400 -408 51 -19 93 -26 177 -30 161 -7 263 22 378 108 l57
43 0 69 0 68 -70 -54 c-118 -92 -252 -129 -387 -108 -199 31 -367 176 -425
365 -27 91 -22 244 11 326 134 333 561 438 822 203 l49 -44 0 70 0 71 -42 33
c-131 104 -294 146 -460 118z"/>
<path d="M39612 19309 c-245 -41 -455 -247 -508 -499 -69 -327 133 -665 448
-750 107 -29 270 -25 362 8 133 48 247 143 319 263 l37 64 0 -168 0 -167 65 0
65 0 0 615 0 615 -65 0 -65 0 0 -161 0 -162 -48 74 c-135 206 -368 308 -610
268z m252 -134 c176 -46 315 -176 366 -343 25 -80 27 -215 4 -293 -55 -187
-202 -325 -389 -364 -88 -18 -122 -18 -210 0 -329 70 -503 422 -358 724 104
216 358 336 587 276z"/>
<path d="M42828 19310 c-246 -42 -452 -224 -524 -465 -29 -95 -24 -257 10
-362 87 -268 333 -443 620 -443 189 0 323 56 456 190 96 96 137 168 170 296
51 200 -2 418 -142 577 -138 158 -379 242 -590 207z m214 -131 c205 -43 370
-222 400 -434 39 -275 -160 -537 -439 -577 -250 -36 -493 124 -567 371 -18 62
-21 193 -5 261 39 171 193 327 370 374 66 18 169 20 241 5z"/>
<path d="M44120 19309 c-75 -14 -185 -75 -224 -123 -93 -113 -88 -262 13 -364
54 -56 137 -101 314 -171 287 -114 347 -165 347 -291 0 -115 -88 -187 -250
-205 -158 -18 -319 56 -380 175 l-20 40 -66 0 -66 0 6 -26 c24 -95 103 -194
194 -242 158 -84 420 -84 564 1 142 83 194 240 127 382 -48 102 -138 163 -414
279 -211 89 -265 125 -290 190 -60 156 137 291 339 232 74 -22 149 -91 165
-153 l12 -43 65 0 66 0 -7 38 c-37 200 -260 327 -495 281z"/>
<path d="M21129 19268 c5 -13 120 -284 256 -603 136 -319 249 -586 252 -592 3
-9 30 -13 82 -13 l77 0 166 393 c92 215 209 492 262 615 l94 223 -75 -3 -76
-3 -221 -532 c-122 -293 -223 -533 -226 -533 -3 0 -83 188 -179 418 -96 229
-197 470 -224 535 l-49 117 -74 0 c-72 0 -73 0 -65 -22z"/>
<path d="M38630 18675 l0 -615 65 0 65 0 0 615 0 615 -65 0 -65 0 0 -615z"/>
</g>
</svg>
