<?xml version="1.0" standalone="no"?>
<!DOCTYPE svg PUBLIC "-//W3C//DTD SVG 20010904//EN"
 "http://www.w3.org/TR/2001/REC-SVG-20010904/DTD/svg10.dtd">
<svg version="1.0" xmlns="http://www.w3.org/2000/svg"
 width="6000.000000pt" height="6000.000000pt" viewBox="0 0 6000.000000 6000.000000"
 preserveAspectRatio="xMidYMid meet">

<g transform="translate(0.000000,6000.000000) scale(0.100000,-0.100000)"
fill="#000000" stroke="none">
<path d="M21775 46900 c-1142 -13 -1275 -21 -1660 -106 -1012 -223 -1795 -872
-2149 -1780 -133 -342 -162 -500 -186 -1004 -58 -1274 -83 -6594 -59 -12900 4
-1075 15 -4833 24 -8350 l17 -6395 71 -130 c189 -347 277 -500 352 -615 286
-439 713 -822 1205 -1083 58 -30 136 -65 174 -76 282 -86 824 -118 2396 -142
452 -7 3809 -13 9355 -16 l8650 -4 250 131 c318 167 336 178 478 272 497 332
934 880 1167 1462 43 107 51 138 64 256 106 942 170 5445 183 12830 13 7963
-57 14169 -173 15325 -13 130 -21 169 -64 295 -197 587 -560 1073 -1071 1436
-150 107 -249 165 -644 381 l-330 180 -4655 18 c-4944 20 -12279 28 -13395 15z
m1180 -285 c253 -16 404 -36 461 -60 64 -27 43 -45 -151 -128 -1072 -459
-1807 -871 -2340 -1311 -137 -113 -417 -390 -521 -516 -323 -388 -607 -880
-824 -1425 -211 -530 -284 -1004 -284 -1845 0 -443 21 -687 89 -1010 124 -586
424 -1176 846 -1665 935 -1083 2949 -2217 6615 -3723 1600 -658 2713 -1159
3719 -1676 1333 -685 2321 -1336 3050 -2011 1099 -1018 1702 -2021 1924 -3200
135 -712 157 -1693 56 -2455 -95 -717 -329 -1417 -755 -2258 -876 -1732 -2432
-3052 -4336 -3677 -93 -30 -219 -66 -279 -80 -757 -170 -2264 -230 -3740 -149
-1168 63 -1996 210 -2965 526 -858 280 -1683 694 -2345 1176 -972 709 -1707
1621 -2167 2692 -68 158 -106 258 -200 520 -178 501 -253 657 -361 757 -47 44
-96 63 -160 63 -79 0 -114 69 -142 274 -63 474 -73 1388 -79 7381 -8 7132 16
10322 84 11455 22 354 35 421 126 637 210 501 551 913 1005 1214 257 169 611
330 831 378 243 52 728 96 1338 120 365 15 1245 12 1505 -4z m13705 -14 c1921
-24 2557 -45 2933 -97 243 -33 378 -75 587 -178 402 -201 781 -532 1113 -974
286 -382 365 -913 408 -2757 13 -557 27 -6337 28 -11106 l1 -3657 -232 -6
c-128 -3 -685 -10 -1238 -16 -1950 -20 -2410 -42 -2410 -114 0 -21 61 -70 137
-111 300 -164 395 -227 494 -333 263 -280 347 -793 389 -2367 10 -379 20
-1307 41 -3615 13 -1461 7 -3790 -10 -4080 -48 -815 -121 -1112 -320 -1310
-104 -104 -215 -169 -656 -381 -646 -311 -1419 -530 -2150 -608 -359 -39 -486
-45 -860 -45 -373 1 -585 15 -935 60 -970 124 -1938 426 -2880 898 -742 372
-1128 635 -1680 1147 -85 78 -488 475 -895 881 l-741 738 -644 40 c-1076 69
-1790 66 -1790 -6 0 -89 851 -1036 1419 -1578 857 -818 1766 -1470 2621 -1878
199 -95 390 -172 830 -334 206 -75 378 -140 383 -144 13 -11 -5333 -45 -7218
-45 -1872 0 -2196 5 -2750 40 -259 16 -521 44 -700 75 -400 68 -653 181 -878
390 -123 115 -325 334 -438 475 -326 407 -443 712 -504 1310 -36 359 -38 486
-42 2362 l-4 1863 43 -19 c24 -10 296 -132 606 -270 730 -327 1069 -468 1502
-626 1576 -576 3250 -971 5060 -1194 807 -99 1871 -152 2646 -132 1244 33
2141 166 3049 452 1874 591 3477 1820 4557 3497 396 614 716 1277 959 1990
216 635 302 1121 350 1977 16 292 17 1148 1 1355 -68 877 -243 1491 -681 2385
-189 385 -358 686 -551 976 -924 1391 -2281 2529 -4290 3601 -740 395 -1427
714 -2516 1169 -319 132 -712 297 -874 366 -162 69 -410 174 -550 233 -3233
1370 -4494 1983 -5265 2560 -335 251 -579 498 -854 864 -307 408 -496 835
-567 1281 -22 137 -30 529 -14 682 72 713 355 1465 769 2046 444 622 1046
1127 1781 1493 429 214 761 339 1285 486 360 100 677 139 1455 180 342 18
2577 18 2880 0 581 -34 878 -77 1207 -173 810 -235 1420 -555 2013 -1056 172
-145 510 -487 661 -668 358 -430 652 -889 929 -1450 200 -404 336 -732 535
-1295 151 -424 221 -580 286 -634 28 -24 34 -25 53 -13 72 46 109 261 137 797
6 119 13 829 16 1691 4 1245 3 1487 -8 1492 -8 3 -242 117 -520 254 -809 399
-1250 587 -1914 818 -443 154 -767 280 -821 320 -17 12 -13 14 37 20 141 18
832 23 2519 20 1004 -2 2210 -9 2680 -14z m4895 -19051 c50 -96 76 -379 95
-1030 24 -818 46 -3291 64 -7145 l12 -2640 -202 -405 c-259 -517 -411 -773
-548 -917 -73 -79 -95 -72 -121 39 -33 143 -57 539 -75 1228 -18 683 -33 5773
-21 7125 21 2330 49 2722 221 3108 193 432 503 776 575 637z"/>
<path d="M24908 34898 c-119 -167 -245 -348 -280 -403 -374 -579 -887 -1589
-1230 -2420 -243 -588 -469 -1324 -622 -2027 -584 -2671 -339 -5527 688 -8020
292 -708 707 -1486 910 -1705 59 -64 85 -76 236 -107 431 -88 1545 -226 1973
-243 l167 -6 0 32 c0 62 -166 352 -460 801 -169 258 -236 369 -343 565 -1033
1901 -1588 4721 -1361 6920 146 1418 580 3059 1157 4365 107 245 178 393 480
1005 307 625 417 860 417 892 0 14 -37 34 -148 80 -160 67 -268 113 -920 389
-238 101 -437 184 -441 184 -4 0 -105 -136 -223 -302z"/>
<path d="M33720 39923 c-953 -29 -1448 -112 -2378 -399 -601 -186 -1027 -350
-1482 -571 -999 -484 -2137 -1223 -2221 -1441 -13 -33 10 -62 94 -119 171
-117 255 -158 824 -398 l393 -165 321 256 c177 141 370 291 428 334 680 493
1581 927 2521 1215 685 210 1288 330 2015 402 255 25 997 25 1230 0 691 -75
1457 -267 2050 -514 1130 -470 1942 -1215 2389 -2192 81 -178 136 -320 229
-601 123 -370 249 -680 277 -680 19 0 42 137 60 355 30 393 35 659 35 2085 l0
1454 -655 168 c-1728 444 -2099 535 -2480 612 -638 128 -1100 170 -2190 196
-364 9 -1218 11 -1460 3z"/>
</g>
</svg>
